<svg width="596" height="596" viewBox="0 0 596 596" fill="none" xmlns="http://www.w3.org/2000/svg">
<path fill-rule="evenodd" clip-rule="evenodd" d="M189.178 349.574H197.02V509.257H189.178V349.574ZM194.148 335.733L118.148 335.594L118.277 348.671L123.237 348.729V390.564H132.148V348.834L194.148 349.564V335.733ZM404.724 312.911H395.712C391.035 312.911 387.208 316.738 387.208 321.415V323.655C387.208 328.332 391.035 332.159 395.712 332.159H396.297V321.99H404.614V332.158H404.724C409.401 332.158 413.228 328.331 413.228 323.654V321.414C413.228 316.737 409.401 312.911 404.724 312.911ZM360.445 443.595C360.445 446.502 362.824 448.881 365.731 448.881H401.546C404.453 448.881 406.832 446.502 406.832 443.595V440.683H360.444L360.445 443.595ZM418.723 440.446V506.62C419.595 507.121 420.258 507.929 420.57 508.901H426.565V439.82C425.582 440.22 424.51 440.445 423.388 440.445H418.723V440.446ZM423.387 352.099H419.009C421.689 381.691 423.534 408.029 423.534 408.029C421.928 408.915 420.324 409.699 418.722 410.389V420.959H423.386C424.509 420.959 425.58 421.184 426.563 421.584V351.473C425.581 351.874 424.51 352.099 423.387 352.099Z" fill="white"/>
<path d="M503.673 425.02L454.96 425.495C454.96 425.495 441.415 408.148 449.495 388.663C449.495 388.663 462.327 392.227 467.792 403.633C467.792 403.633 470.881 389.613 481.337 381.772C481.337 381.772 489.654 391.752 491.792 404.109C491.792 404.109 498.683 391.753 509.614 390.564C509.614 390.564 517.693 409.337 503.673 425.02ZM312.096 144.93H265.548C261.168 144.93 257.584 148.514 257.584 152.894V182.502C257.584 186.882 261.168 190.466 265.548 190.466H271.604V201.416L280.811 190.466H312.096C316.476 190.466 320.06 186.882 320.06 182.502V152.894C320.06 148.514 316.476 144.93 312.096 144.93ZM263.73 251.525H185.125C180.89 251.525 177.426 253.253 177.426 257.809L191.849 320.168H250.435C250.459 320.137 250.476 320.111 250.5 320.08C255.433 313.702 266.43 316.718 266.43 316.718C266.43 316.718 277.454 317.24 288.031 317.747L275.147 259.809C274.178 253.955 267.965 251.525 263.73 251.525ZM396.297 420.96H344.395C339.718 420.96 335.891 424.787 335.891 429.464V431.941C335.891 436.618 339.718 440.445 344.395 440.445H396.297V420.96ZM423.387 292.969H363.048C358.371 292.969 354.544 296.796 354.544 301.473V343.595C354.544 348.272 358.371 352.099 363.048 352.099H396.297V332.158H395.712C391.035 332.158 387.208 328.331 387.208 323.654V321.414C387.208 316.737 391.035 312.91 395.712 312.91H404.724C409.401 312.91 413.228 316.737 413.228 321.414V323.654C413.228 328.331 409.401 332.158 404.724 332.158H404.614V352.099H423.387C428.064 352.099 431.891 348.272 431.891 343.595V301.473C431.891 296.796 428.064 292.969 423.387 292.969ZM423.387 420.96H404.614V440.445H423.387C428.064 440.445 431.891 436.618 431.891 431.941V429.464C431.891 424.787 428.064 420.96 423.387 420.96ZM416.726 506.069H350.552C348.322 506.069 346.498 507.893 346.498 510.123V512.356H420.78V510.123C420.78 507.894 418.955 506.069 416.726 506.069Z" fill="white"/>
<path fill-rule="evenodd" clip-rule="evenodd" d="M311.097 338.246C299.434 338.322 266.568 327.488 266.568 327.488L249.136 326.709C249.136 326.709 245.567 326.458 250.5 320.079C255.433 313.701 266.43 316.717 266.43 316.717C266.43 316.717 305.309 318.558 307.094 318.683C308.879 318.809 316.903 313.096 316.903 313.096L326.706 333.067C326.706 333.067 322.76 338.171 311.097 338.246ZM384.707 249.105C384.707 249.105 377.671 249.071 377.94 249.026C377.94 249.026 371.809 246.982 369.422 230.291C369.422 230.291 379.508 233.264 379.508 222.033C379.508 210.802 370.813 212.454 368.031 217.078C368.031 217.078 364.901 225.666 361.423 221.042C359.062 217.902 365.168 207.819 359.684 199.573C355.51 193.297 345.076 199.903 345.076 199.903C345.076 199.903 338.43 235.061 353.757 245.62C353.757 245.62 357.773 248.731 366.005 249.528C366.053 250.099 366.146 251.527 366.267 254.881C366.267 254.881 383.484 252.742 385.158 252.742L384.707 249.105ZM335.735 456.85C337.442 468.385 342.915 505.791 342.01 505.188C341.349 504.747 334.016 507.168 327.416 510.258L325.614 505.406C325.614 505.406 328.583 481.641 329.125 456.663C322.12 458.753 312.381 458.604 306.417 458.242C308.011 469 313.703 507.802 312.782 507.188C311.713 506.475 293.178 513.247 288.544 518.237L330.247 517.881L329.599 516.136L348.322 515.976C348.206 515.519 348.138 515.042 348.138 514.549C348.138 513.772 348.293 513.033 348.57 512.356H346.498V510.123C346.498 507.893 348.322 506.069 350.552 506.069H355.831L354.842 503.406C354.842 503.406 357.645 480.979 358.301 456.799C349.247 458.447 340.789 457.768 335.735 456.85Z" fill="white"/>
<path fill-rule="evenodd" clip-rule="evenodd" d="M132.505 348.861H139.634V390.564H132.505V348.861ZM453.059 425.97L459.95 483L501.534 483.238L507.712 426.208L453.059 425.97ZM387.381 505.713V449.238H379.896V505.713H387.381ZM403.507 232.273C413.051 215.656 410.811 189.995 398.986 180.416C389.416 172.664 371.47 167.28 351.714 178.861C348.903 180.509 337.408 175.796 334.684 181.926C334.044 183.365 342.036 189.248 341.277 190.28C332.809 201.813 343.454 206.729 343.454 206.729L344.084 207.5C344.506 202.948 345.078 199.903 345.078 199.903C345.078 199.903 355.512 193.297 359.686 199.573C365.17 207.82 359.064 217.903 361.425 221.042C364.903 225.666 368.033 217.078 368.033 217.078C370.815 212.454 379.51 210.802 379.51 222.033C379.51 233.264 369.424 230.291 369.424 230.291C373.101 247.515 378.283 249.367 378.283 249.367C386.796 249.367 395.159 246.806 403.507 232.273ZM358.301 456.799C357.905 471.392 356.727 485.337 355.856 494.109H361.198V456.192C360.228 456.422 359.261 456.625 358.301 456.799ZM396.297 440.228H404.614V321.99H396.297V440.228ZM328.485 339.238C326.123 338.474 324.112 337.372 322.373 336.069C319.907 337.194 316.261 338.214 311.097 338.247C307.41 338.271 301.602 337.203 295.384 335.733H194.148V349.565H197.376V508.902H208.069V349.564H344.285C344.745 344.605 345.046 339.763 345.242 335.732H333.928C330.893 337.797 328.485 339.238 328.485 339.238ZM431.891 343.595C431.891 347.15 429.678 350.208 426.564 351.474V421.585C429.678 422.851 431.891 425.909 431.891 429.464V431.941C431.891 435.496 429.678 438.554 426.564 439.82V509.257H437.257V349.564H443.653V335.732H431.891V343.595ZM348.57 512.356C348.293 513.033 348.138 513.773 348.138 514.549C348.138 517.756 350.738 520.356 353.945 520.356C357.152 520.356 359.752 517.756 359.752 514.549C359.752 513.772 359.597 513.033 359.32 512.356H348.57ZM378.216 512.356C377.939 513.033 377.784 513.773 377.784 514.549C377.784 517.756 380.384 520.356 383.591 520.356C386.798 520.356 389.398 517.756 389.398 514.549C389.398 513.772 389.243 513.033 388.966 512.356H378.216ZM407.862 512.356C407.585 513.033 407.43 513.773 407.43 514.549C407.43 517.756 410.03 520.356 413.237 520.356C416.444 520.356 419.044 517.756 419.044 514.549C419.044 513.772 418.889 513.033 418.612 512.356H407.862Z" fill="white"/>
<path fill-rule="evenodd" clip-rule="evenodd" d="M285.938 98.209V117.325C285.938 122.002 282.111 125.829 277.434 125.829H244.335C239.658 125.829 235.831 122.002 235.831 117.325V98.209C235.831 93.532 239.658 89.705 244.335 89.705H277.434C282.112 89.705 285.938 93.532 285.938 98.209ZM210.535 221.297C225.735 216.99 235.433 209.502 239.763 204.188C244.991 197.772 245.228 190.881 241.902 190.406C241.902 190.406 233.154 188.911 222.754 192.96C222.655 192.998 230.081 203.569 218.764 207.178C213.15 208.968 208.547 201.622 208.501 201.524C204.169 205.434 199.838 210.621 195.804 217.495C195.802 217.495 196.277 225.337 210.535 221.297ZM208.495 201.515L208.499 201.524C208.512 201.512 208.526 201.5 208.539 201.488L208.495 201.515ZM110.121 400.217C110.155 396.282 110.058 392.417 110.121 390.984H78.291V399.847H82.098V509.079C82.098 509.079 112.149 509.37 112.188 509.248L111.987 400.206L110.121 400.217ZM131.46 230.622L195.326 185.892L192.474 180.664L127.946 226.816C129.511 227.595 130.779 228.93 131.46 230.622ZM126.312 240.482C125.101 240.757 123.893 240.712 122.773 240.406L143.524 325.139L149.861 325.357L128.264 239.729C127.667 240.063 127.014 240.322 126.312 240.482ZM404.614 414.203V420.96H404.637C412.098 418.014 414.012 415.249 414.893 411.864C411.438 413.044 408.004 413.803 404.614 414.203ZM337.364 380.349C329.195 381.284 305.173 384.418 297.525 389.713C288.258 396.129 287.545 406.466 292.535 419.654C297.857 433.719 301.089 457.793 301.089 457.793C301.089 457.793 321.2 460.226 331.556 455.8C334.592 456.999 348.048 459.526 362 456.001C362.083 454.111 362.16 451.053 362.229 447.52C361.144 446.55 360.445 445.157 360.445 443.596V440.684L344.395 440.446C339.718 440.446 335.891 436.619 335.891 431.942V429.465C335.891 424.788 339.718 420.961 344.395 420.961H396.297V414.496C367.115 413.164 342.631 387.811 337.364 380.349ZM249.136 326.71C249.136 326.71 248.744 326.677 248.399 326.406H186.317C187.149 336.264 195.781 335.161 195.781 335.161H260.852C260.142 330.394 258.777 328.147 257.694 327.092L249.136 326.71Z" fill="white"/>
<path d="M129.861 335.475C129.861 335.475 130.217 325.851 137.346 325.495H157.663C157.663 325.495 166.93 326.208 169.069 335.475H129.861ZM126.312 240.482C130.247 239.588 132.712 235.673 131.818 231.737C130.924 227.802 127.009 225.337 123.073 226.231C119.138 227.125 116.673 231.04 117.567 234.976C118.462 238.911 122.377 241.376 126.312 240.482ZM312.096 144.93C315.901 144.93 319.101 147.635 319.877 151.217H363.331C368.008 151.217 371.835 147.39 371.835 142.713V118.33C371.835 113.653 368.008 109.826 363.331 109.826H304.233C299.556 109.826 295.729 113.653 295.729 118.33V142.713C295.729 143.481 295.841 144.222 296.034 144.93H312.096ZM196.75 188.035C196.687 188.147 190.602 199.056 195.802 217.495C195.802 217.495 210.535 187.079 241.901 190.406C241.901 190.406 232.231 180.486 214.906 177.479L208.158 168.07C205.782 163.318 199.604 159.516 192.95 163.793C186.296 168.07 191.049 178.05 191.049 178.05L196.75 188.035ZM110.885 399.847H111.994L112.188 509.166C139.297 509.24 174.929 509.323 175.005 509.248L174.404 399.847H178.129V390.984H110.885V399.847ZM354.545 343.595V301.473C354.545 296.796 358.372 292.969 363.049 292.969H412.48C410.875 282.074 409.24 274.134 407.686 271.673C400.598 260.45 392.751 261.148 392.751 261.148C392.751 261.148 390.356 253.471 388.012 252.801C385.668 252.131 367.933 254.583 367.933 254.583C367.933 254.583 362.76 255.409 361.755 258.088C360.75 260.767 357.923 269.52 357.923 269.52C357.923 269.52 349.45 270.509 343.28 281.96C339.469 289.033 317.557 309.772 311.854 313.574C311.854 313.574 312.329 334.01 328.488 339.237C328.488 339.237 330.759 337.879 333.669 335.91H345.237C344.517 350.585 342.408 375.794 336.38 378.306C334.819 378.957 362.388 412.944 396.301 414.495V352.098H363.052C358.371 352.099 354.545 348.272 354.545 343.595ZM419.01 352.099H404.614V414.206C410.821 413.473 417.171 411.54 423.535 408.03C423.535 408.03 421.69 381.691 419.01 352.099ZM191.849 320.168L177.426 257.809C177.426 253.253 180.891 251.525 185.125 251.525H263.73C267.965 251.525 274.178 253.956 275.146 259.809L288.03 317.747C290.257 317.854 292.464 317.96 294.544 318.06L280.415 255.991C279.346 249.526 273.588 246.841 268.911 246.841H178.78C174.103 246.841 170.276 250.958 170.276 255.991L186.205 325.97H248.049C247.659 325.181 247.838 323.549 250.433 320.168H191.849ZM257.703 327.093C258.845 328.203 260.297 330.628 260.965 335.911H296.149C282.526 332.747 266.568 327.489 266.568 327.489L257.703 327.093Z" fill="white"/>
<path d="M247.978 108.24V108.282C247.978 110.26 249.346 111.838 251.303 111.838C252.502 111.838 253.386 111.291 254.185 110.47L255.721 111.985C254.627 113.205 253.344 114.068 251.176 114.068C247.872 114.068 245.431 111.48 245.431 108.324V108.282C245.431 105.126 247.872 102.474 251.218 102.474C253.301 102.474 254.606 103.253 255.658 104.389L254.059 106.094C253.28 105.273 252.46 104.705 251.197 104.705C249.346 104.705 247.978 106.304 247.978 108.24ZM261.927 112.006C260.791 112.006 259.508 111.543 258.287 110.638L257.151 112.364C258.54 113.458 260.286 114.026 261.864 114.026C264.178 114.026 265.988 112.869 265.988 110.533V110.491C265.988 108.492 264.157 107.756 262.537 107.251C261.232 106.83 260.033 106.493 260.033 105.673V105.631C260.033 105 260.601 104.537 261.59 104.537C262.516 104.537 263.652 104.936 264.725 105.589L265.735 103.779C264.557 103.001 263.042 102.517 261.653 102.517C259.444 102.517 257.697 103.8 257.697 105.905V105.947C257.697 108.072 259.528 108.745 261.169 109.208C262.474 109.608 263.652 109.903 263.652 110.765V110.807C263.652 111.543 263.021 112.006 261.927 112.006ZM272.257 112.006C271.121 112.006 269.838 111.543 268.617 110.638L267.481 112.364C268.87 113.458 270.616 114.026 272.194 114.026C274.508 114.026 276.318 112.869 276.318 110.533V110.491C276.318 108.492 274.487 107.756 272.867 107.251C271.562 106.83 270.363 106.493 270.363 105.673V105.631C270.363 105 270.931 104.537 271.92 104.537C272.846 104.537 273.982 104.936 275.055 105.589L276.065 103.779C274.887 103.001 273.372 102.517 271.983 102.517C269.774 102.517 268.027 103.8 268.027 105.905V105.947C268.027 108.072 269.858 108.745 271.499 109.208C272.804 109.608 273.982 109.903 273.982 110.765V110.807C273.982 111.543 273.351 112.006 272.257 112.006ZM244.335 126.829H247.96C247.96 126.829 248.821 126.653 248.807 125.756C248.791 124.782 247.931 124.829 247.931 124.829H244.335C240.197 124.829 236.831 121.463 236.831 117.325V98.209C236.831 94.071 240.197 90.705 244.335 90.705H277.435C281.573 90.705 284.939 94.071 284.939 98.209V117.325C284.939 121.463 281.573 124.829 277.435 124.829H256.545C256.545 124.829 255.706 125.048 255.736 125.811C255.773 126.773 256.605 126.829 256.605 126.829H277.436C282.676 126.829 286.94 122.565 286.94 117.325V98.209C286.94 92.969 282.676 88.705 277.436 88.705H244.336C239.096 88.705 234.832 92.969 234.832 98.209V117.325C234.831 122.565 239.095 126.829 244.335 126.829ZM318.941 137.435V123.881H316.559V129.516H310.091V123.881H307.71V137.435H310.091V131.723H316.559V137.435H318.941ZM328.164 137.435V126.088H332.462V123.881H321.464V126.088H325.763V137.435H328.164ZM337.327 127.753L341.567 134.104H341.644L345.923 127.714V137.434H348.305V123.88H345.769L341.644 130.289L337.52 123.88H334.984V137.434H337.327V127.753ZM351.798 123.881V137.435H361.305V135.266H354.179V123.881C354.179 123.881 351.798 123.881 351.798 123.881ZM337.455 110.826H341.97C341.97 110.826 342.961 110.644 342.956 109.808C342.95 108.891 341.911 108.826 341.911 108.826H337.485C337.485 108.826 336.597 108.888 336.611 109.781C336.624 110.584 337.455 110.826 337.455 110.826ZM291.25 160.749L284.209 173.972C283.95 174.46 284.134 175.065 284.622 175.325C284.772 175.405 284.933 175.442 285.091 175.442C285.449 175.442 285.795 175.25 285.975 174.912L293.016 161.689C293.275 161.201 293.091 160.596 292.603 160.336C292.114 160.076 291.509 160.263 291.25 160.749ZM297.214 174.776C297.409 174.971 297.665 175.069 297.921 175.069C298.177 175.069 298.433 174.971 298.628 174.776L305.022 168.381C305.212 168.191 305.318 167.931 305.315 167.661C305.311 167.391 305.2 167.135 305.004 166.949L298.61 160.866C298.21 160.486 297.577 160.501 297.196 160.901C296.816 161.301 296.831 161.934 297.231 162.315L302.883 167.691L297.214 173.36C296.824 173.753 296.824 174.386 297.214 174.776ZM280.875 160.885C280.484 160.494 279.852 160.494 279.461 160.885L273.067 167.28C272.876 167.47 272.771 167.73 272.774 168C272.777 168.27 272.889 168.526 273.085 168.712L279.479 174.795C279.673 174.979 279.921 175.07 280.168 175.07C280.432 175.07 280.696 174.966 280.893 174.759C281.273 174.359 281.258 173.726 280.858 173.345L275.207 167.969L280.876 162.3C281.265 161.909 281.265 161.276 280.875 160.885ZM265.548 143.93C260.605 143.93 256.584 147.951 256.584 152.894V182.502C256.584 187.445 260.605 191.466 265.548 191.466H270.604V201.417C270.604 201.837 270.867 202.212 271.262 202.356C271.374 202.397 271.49 202.417 271.604 202.417C271.894 202.417 272.176 202.291 272.37 202.061L281.278 191.467H294.417C294.417 191.467 295.397 191.348 295.378 190.425C295.358 189.477 294.417 189.467 294.417 189.467H280.812C280.517 189.467 280.237 189.597 280.046 189.823L272.604 198.674V190.466C272.604 189.914 272.156 189.466 271.604 189.466H265.548C261.708 189.466 258.584 186.342 258.584 182.502V152.894C258.584 149.054 261.708 145.93 265.548 145.93H312.096C315.936 145.93 319.06 149.054 319.06 152.894V182.502C319.06 186.342 315.936 189.466 312.096 189.466H303.268C303.268 189.466 302.259 189.626 302.311 190.448C302.377 191.496 303.328 191.466 303.328 191.466H312.097C317.039 191.466 321.061 187.445 321.061 182.502V152.894C321.061 152.665 321.044 152.441 321.027 152.217H363.334C368.574 152.217 372.838 147.953 372.838 142.713V118.33C372.838 113.09 368.574 108.826 363.334 108.826H349.903C349.903 108.826 349.042 108.891 349.063 109.789C349.087 110.797 349.962 110.826 349.962 110.826H363.334C367.472 110.826 370.838 114.192 370.838 118.33V142.713C370.838 146.851 367.472 150.217 363.334 150.217H320.653C319.512 146.578 316.108 143.93 312.098 143.93H296.857C296.785 143.533 296.732 143.13 296.732 142.713V118.33C296.732 114.192 300.098 110.826 304.236 110.826H329.141C329.141 110.826 330.448 110.733 330.464 109.814C330.482 108.77 329.141 108.826 329.141 108.826H304.236C298.996 108.826 294.732 113.09 294.732 118.33V142.713C294.732 143.129 294.778 143.531 294.837 143.93H265.548ZM355.769 399.661C356.113 399.916 356.97 400.04 357.327 399.624C357.756 399.123 357.448 398.382 357.157 398.168C355.678 397.08 354.258 395.981 352.914 394.885C352.617 394.642 351.831 394.449 351.471 395.108C351.179 395.643 351.367 396.214 351.684 396.474C352.991 397.547 354.356 398.614 355.769 399.661ZM550.539 482.237C548.526 482.187 546.512 482.148 544.498 482.12C544.493 482.12 544.489 482.12 544.484 482.12C543.938 482.12 543.492 482.558 543.484 483.106C543.476 483.658 543.918 484.112 544.47 484.12C546.476 484.148 548.483 484.187 550.49 484.237C550.498 484.237 550.507 484.237 550.514 484.237C551.055 484.237 551.5 483.805 551.514 483.261C551.528 482.71 551.092 482.251 550.539 482.237ZM538.904 482.067C538.902 482.067 538.901 482.067 538.899 482.067C535.052 482.087 531.154 482.144 527.31 482.237C526.758 482.251 526.322 482.71 526.334 483.261C526.348 483.805 526.793 484.237 527.334 484.237C527.342 484.237 527.35 484.237 527.358 484.237C531.189 484.143 535.075 484.087 538.908 484.067C539.461 484.064 539.906 483.614 539.903 483.062C539.901 482.512 539.454 482.067 538.904 482.067ZM519.537 483.239C519.536 483.791 519.089 484.237 518.537 484.237C518.536 484.237 518.536 484.237 518.535 484.237C492.071 484.197 465.53 484.166 438.95 484.141V509.237C438.95 509.79 438.503 510.237 437.95 510.237H421.779V512.356C421.779 512.909 421.332 513.356 420.779 513.356H419.932C420.003 513.744 420.044 514.141 420.044 514.549C420.044 518.302 416.99 521.356 413.237 521.356C409.484 521.356 406.43 518.302 406.43 514.549C406.43 514.141 406.468 513.743 406.539 513.356H390.286C390.356 513.744 390.397 514.142 390.397 514.549C390.397 518.302 387.343 521.356 383.59 521.356C379.836 521.356 376.782 518.302 376.782 514.549C376.782 514.141 376.823 513.743 376.893 513.356H360.639C360.709 513.744 360.751 514.142 360.751 514.549C360.751 518.302 357.697 521.356 353.943 521.356C350.683 521.356 347.953 519.05 347.292 515.985L330.66 516.127L331.182 517.532C331.296 517.838 331.253 518.179 331.069 518.447C330.883 518.716 330.58 518.878 330.254 518.88L288.552 519.236C288.549 519.236 288.546 519.237 288.543 519.237C288.147 519.237 287.788 519.003 287.628 518.64C287.467 518.275 287.538 517.848 287.81 517.556C291.611 513.461 306.834 506.887 311.876 506.25C311.76 503.619 310.6 494.642 309.129 484.064C276.193 484.059 242.323 484.066 209.404 484.081V509.236C209.404 509.5 209.3 509.752 209.115 509.939C208.856 510.201 208.772 510.286 202.778 510.286C199.865 510.286 195.556 510.266 189.152 510.236C188.602 510.233 188.157 509.787 188.157 509.236V484.09C184.059 484.092 179.958 484.093 175.861 484.095L176.004 509.239C176.005 509.507 175.9 509.763 175.711 509.952C175.438 510.225 175.387 510.276 167.297 510.276C165.457 510.276 163.202 510.273 160.435 510.27C151.719 510.259 140.109 510.235 128.503 510.206C105.291 510.148 82.095 510.076 82.095 510.076C81.544 510.074 81.098 509.627 81.098 509.076V484.184C68.448 484.2 55.805 484.216 43.18 484.235C42.628 484.235 42.18 483.789 42.179 483.237C42.178 482.684 42.625 482.236 43.178 482.235C55.804 482.216 68.449 482.199 81.099 482.184V454.01C81.099 454.01 81.201 452.829 82.026 452.852C83.14 452.882 83.099 454.01 83.099 454.01V508.081C91.162 508.106 100.968 508.135 111.133 508.163V400.847H110.027H109.886H83.098V444.364C83.098 444.364 83.074 445.487 82.061 445.487C81.145 445.487 81.098 444.364 81.098 444.364V400.847H78.291C77.739 400.847 77.291 400.4 77.291 399.847V390.985C77.291 390.432 77.739 389.985 78.291 389.985H109.885H110.26H122.149V349.771C122.149 349.752 122.159 349.736 122.16 349.717L118.266 349.671C117.722 349.664 117.283 349.225 117.278 348.681L117.149 335.604C117.147 335.336 117.251 335.08 117.439 334.89C117.627 334.7 117.882 334.594 118.149 334.594C118.149 334.594 118.15 334.594 118.151 334.594L128.922 334.614C129.297 330.835 131.385 324.792 137.297 324.497C137.314 324.496 137.33 324.496 137.347 324.496H142.338L121.933 241.174C121.358 240.97 120.797 240.72 120.268 240.387C118.391 239.204 117.085 237.362 116.594 235.198C116.103 233.034 116.482 230.809 117.665 228.931C118.847 227.054 120.69 225.749 122.853 225.257C124.541 224.873 126.263 225.028 127.831 225.671L191.208 180.342L190.182 178.546C188.372 174.753 186.562 166.712 192.411 162.951C195.379 161.043 198.545 160.471 201.566 161.301C204.686 162.157 207.468 164.494 209.023 167.56L215.004 176.302C231.379 178.004 240.846 187.736 242.436 189.5C243.466 189.775 244.264 190.526 244.705 191.655C245.957 194.86 244.244 200.274 240.539 204.821C238.298 207.571 229.532 216.955 210.809 222.26C207.992 223.058 205.512 223.457 203.383 223.457C200.918 223.457 198.923 222.922 197.416 221.853C195.249 220.315 194.877 218.195 194.818 217.68C190.145 201.02 194.452 190.463 195.618 188.056L195.15 187.238L132.654 231.009C132.703 231.177 132.756 231.344 132.796 231.517C133.288 233.681 132.908 235.906 131.725 237.784C131.116 238.752 130.329 239.563 129.415 240.194L150.678 324.496H157.666C157.839 324.507 167.379 325.355 169.899 334.689L189.453 334.725C189.34 334.643 189.225 334.573 189.113 334.483C186.984 332.768 185.734 330.084 185.373 326.517C185.31 326.42 185.261 326.312 185.234 326.193L169.305 256.214C169.288 256.141 169.28 256.067 169.28 255.992C169.28 250.396 173.544 245.843 178.784 245.843H268.915C274.135 245.843 280.27 248.968 281.406 255.829L295.354 317.099C301.597 317.401 306.548 317.645 307.167 317.689C307.683 317.683 309.195 316.896 311.043 315.775C310.883 314.455 310.856 313.64 310.855 313.599C310.847 313.256 311.015 312.934 311.3 312.744C316.951 308.976 338.773 288.221 342.4 281.488C348.081 270.948 355.639 268.93 357.426 268.592L360.441 258.404C360.472 258.29 361.245 255.713 365.178 254.278L365.007 250.432C357.251 249.504 353.372 246.588 353.143 246.409C341.945 238.696 342.006 218.831 343.043 207.641C343.041 207.64 343.038 207.64 343.036 207.639C342.85 207.554 338.485 205.492 337.298 200.885C336.451 197.604 337.438 193.952 340.23 190.026C339.809 189.394 338.463 188.081 337.537 187.176C334.659 184.369 333.185 182.843 333.772 181.521C335.827 176.902 341.899 177.529 346.329 177.987C348.283 178.189 350.496 178.417 351.211 177.999C371.052 166.368 389.224 171.221 399.618 179.64C411.767 189.481 414.125 215.799 404.377 232.772C398.355 243.256 391.863 247.608 385.719 249.327L386.025 251.572C389.201 251.629 390.12 252.847 390.831 254.208L390.881 254.304C391.896 256.234 392.448 257.501 392.936 258.619C393.171 259.157 393.397 259.656 393.637 260.162C396.066 260.333 402.584 261.719 408.534 271.14C410.098 273.616 411.736 281.358 413.343 291.971H414.765H423.39C428.63 291.971 432.894 296.235 432.894 301.475V309.12C432.894 309.12 432.851 310.444 431.913 310.444C430.979 310.444 430.894 309.12 430.894 309.12V301.475C430.894 297.337 427.528 293.971 423.39 293.971H414.544H375.409C371.271 293.971 367.905 297.337 367.905 301.475V343.597C367.905 347.735 371.271 351.101 375.409 351.101H395.301V333.139C390.254 332.919 386.212 328.756 386.212 323.656V321.417C386.212 316.176 390.476 311.912 395.716 311.912H404.728C409.968 311.912 414.232 316.176 414.232 321.417V323.656C414.232 328.594 410.441 332.646 405.619 333.099V351.1H412.491H423.391C427.529 351.1 430.895 347.734 430.895 343.596V318.654C430.895 318.654 430.98 317.652 431.879 317.652C432.628 317.652 432.895 318.654 432.895 318.654V334.733H443.658C444.211 334.733 444.658 335.18 444.658 335.733V349.565C444.658 350.118 444.211 350.565 443.658 350.565H438.955V482.142C445.598 482.148 452.229 482.156 458.866 482.163L452.085 425.981C452.051 425.697 452.14 425.412 452.33 425.198C452.519 424.983 452.792 424.861 453.078 424.861H453.991C440.09 406.47 448.427 388.613 448.516 388.428C448.726 387.993 449.217 387.768 449.686 387.901C460.64 390.968 465.688 397.606 467.791 401.516C469.679 394.618 473.501 387.275 480.778 380.922C480.981 380.744 481.247 380.655 481.514 380.678C481.783 380.699 482.031 380.828 482.203 381.034C482.311 381.164 489.181 389.58 492.236 402.104C494.355 398.345 499.173 392.352 509.244 389.532C509.714 389.4 510.204 389.625 510.414 390.059C510.498 390.235 518.46 407.319 505.077 424.861H507.884C508.168 424.861 508.44 424.982 508.629 425.194C508.818 425.406 508.909 425.688 508.878 425.97L502.669 482.216C507.958 482.223 513.258 482.229 518.541 482.237C519.091 482.238 519.538 482.687 519.537 483.239ZM242.841 192.382C242.509 191.533 241.986 191.43 241.784 191.4C235.189 190.7 229.339 191.548 224.217 193.304C226.55 196.751 227.058 200.426 225.55 203.532C224.052 206.619 220.731 208.694 217.287 208.694C212.383 208.694 209.435 205.012 208.225 203.08C201.311 209.468 197.556 216.287 196.838 217.666C196.937 218.16 197.3 219.34 198.612 220.252C200.192 221.349 203.495 222.253 210.262 220.337C228.422 215.191 236.84 206.193 238.987 203.558C242.596 199.127 243.666 194.494 242.841 192.382ZM209.75 201.725C210.619 203.185 213.136 206.693 217.287 206.693C219.982 206.693 222.58 205.071 223.751 202.658C225.008 200.067 224.472 197.02 222.286 194.026C217.395 195.987 213.222 198.758 209.75 201.725ZM191.952 177.619L196.799 186.097C198.426 183.694 200.18 181.871 201.93 180.48C202.279 180.203 203.019 180 203.372 180.567C203.803 181.259 203.425 181.844 203.12 182.087C201.234 183.599 199.333 185.675 197.617 188.531C197.492 188.759 192.269 198.518 196.142 214.834C200.216 208.029 214.343 188.039 239.284 189.203C235.574 185.817 226.394 178.907 212.7 178.123C211.962 178.182 211.009 178.314 209.895 178.611C209.614 178.686 209.077 178.337 208.913 177.718C208.783 177.229 209.158 176.742 209.432 176.67C210.428 176.408 211.314 176.261 212.062 176.179C212.181 176.13 212.309 176.106 212.443 176.108L207.33 168.635C207.304 168.598 207.281 168.558 207.261 168.518C205.963 165.921 203.635 163.945 201.033 163.231C200.314 163.033 199.581 162.935 198.843 162.935C197.059 162.935 195.241 163.508 193.489 164.635C187.646 168.391 191.908 177.527 191.952 177.619ZM194.021 185.585L192.139 182.134L129.742 226.762C130.598 227.415 131.307 228.219 131.845 229.132L194.021 185.585ZM121.333 238.693C122.758 239.591 124.45 239.88 126.091 239.506C127.734 239.133 129.133 238.142 130.03 236.716C130.927 235.291 131.217 233.601 130.843 231.958C130.469 230.315 129.479 228.916 128.053 228.019C127.034 227.377 125.881 227.047 124.705 227.047C124.236 227.047 123.764 227.1 123.295 227.206C121.652 227.579 120.253 228.57 119.356 229.996C118.459 231.421 118.169 233.111 118.543 234.754C118.917 236.397 119.907 237.796 121.333 238.693ZM124.102 241.626L144.316 324.165L148.566 324.311L127.587 241.134C127.245 241.261 126.896 241.374 126.534 241.456C125.917 241.596 125.294 241.665 124.677 241.665C124.484 241.666 124.294 241.639 124.102 241.626ZM130.965 334.476H167.752C165.337 327.209 157.916 326.519 157.585 326.493L137.373 326.496C132.546 326.754 131.284 332.16 130.965 334.476ZM79.291 398.847H108.885V391.985H79.291V398.847ZM432.891 336.732V343.595C432.891 345.418 432.366 347.116 431.473 348.564H442.654V336.732H432.891ZM423.387 353.1H420.198C422.76 381.139 424.549 406.044 424.711 408.315C424.74 408.715 424.526 409.094 424.169 409.277C422.674 410.042 421.186 410.717 419.704 411.329V419.961H423.388H423.839C423.833 419.968 423.827 419.976 423.821 419.983C424.412 420.01 424.988 420.087 425.547 420.218V352.844C424.85 353.005 424.13 353.1 423.387 353.1ZM430.891 431.941V429.463C430.891 425.325 427.525 421.959 423.387 421.959H422.423H406.875C406.338 421.959 406.293 421.959 405.615 421.959V439.444H417.733H423.388C427.524 439.445 430.891 436.079 430.891 431.941ZM419.779 511.356V510.123C419.779 508.439 418.409 507.069 416.725 507.069H350.551C348.867 507.069 347.497 508.439 347.497 510.123V511.356H419.779ZM356.527 505.069H378.897V484.094C373.219 484.091 367.542 484.087 361.862 484.084V494.747C361.862 495.182 361.415 495.534 360.862 495.534H360.861H356.715C356.293 499.688 355.964 502.474 355.865 503.285L356.527 505.069ZM327.977 508.899C333.08 506.532 338.477 504.585 341.106 504.253C340.998 501.79 339.975 493.766 338.638 484.074C335.323 484.073 332.009 484.071 328.694 484.07C327.804 495.42 326.818 503.773 326.635 505.285L327.977 508.899ZM338.361 482.074C337.264 474.189 335.994 465.417 334.852 457.711C333.54 457.444 332.451 457.148 331.639 456.847C331.143 457.049 330.635 457.242 330.104 457.415C329.898 466.103 329.403 474.645 328.847 482.069C332.019 482.071 335.189 482.072 338.361 482.074ZM361.032 455.208C361.105 453.335 361.175 450.794 361.239 447.983C360.131 446.849 359.445 445.301 359.445 443.595V441.446H344.395C339.154 441.446 334.89 437.182 334.89 431.942V429.464C334.89 427.659 335.405 425.976 336.282 424.537C335.121 424.445 334.162 424.367 333.505 424.311L334.879 454.538C334.895 454.892 334.724 455.227 334.427 455.421C334.367 455.46 334.299 455.495 334.238 455.534C339.052 456.623 349.672 457.915 361.032 455.208ZM405.614 419.96H406.384C409.573 418.244 411.485 416.082 413.515 413.476C410.848 414.232 408.212 414.765 405.614 415.1V419.96ZM417.703 419.96V412.107C417.418 412.213 417.131 412.329 416.846 412.43C416.572 412.784 416.301 413.137 416.038 413.48C414.153 415.941 412.48 418.117 410.077 419.96H417.703ZM403.614 322.99H397.297V439.445H403.614V322.99ZM386.382 505.069V449.881H380.897V505.069H386.382ZM401.547 447.881C403.91 447.881 405.833 445.958 405.833 443.595V441.684H361.445V443.595C361.445 445.958 363.368 447.881 365.731 447.881H401.547ZM361.861 482.084C367.541 482.087 373.218 482.091 378.896 482.094V449.88H365.731C364.833 449.88 363.98 449.687 363.207 449.347C363.142 452.027 363.072 454.383 362.999 456.043C362.979 456.484 362.673 456.86 362.245 456.969C362.118 457.001 361.989 457.027 361.861 457.058V482.084ZM388.382 482.101C398.16 482.107 407.934 482.114 417.703 482.122V441.445H407.833V443.594C407.833 447.06 405.013 449.88 401.547 449.88H388.382V482.101ZM395.297 421.96H372.613C368.475 421.96 365.109 425.326 365.109 429.464V431.942C365.109 436.08 368.475 439.446 372.613 439.446H395.297V421.96ZM366.803 421.96H344.396C340.257 421.96 336.891 425.326 336.891 429.464V431.942C336.891 436.08 340.257 439.446 344.396 439.446H366.803C364.561 437.706 363.11 434.993 363.11 431.942V429.464C363.109 426.413 364.561 423.7 366.803 421.96ZM359.276 457.621C358.869 471.528 357.763 484.857 356.914 493.536H359.862V457.508C359.666 457.547 359.471 457.583 359.276 457.621ZM417.703 505.168V484.122C407.934 484.114 398.16 484.107 388.382 484.101V505.07H416.726C417.06 505.069 417.386 505.106 417.703 505.168ZM405.614 353.1V413.074C411.423 412.295 417.117 410.557 422.668 407.794C422.359 403.541 420.603 379.692 418.175 353.101H412.814L405.614 353.1ZM395.297 331.137V321.99C395.297 321.437 395.744 320.99 396.297 320.99H404.614C405.167 320.99 405.614 321.437 405.614 321.99V331.1C409.333 330.658 412.227 327.49 412.227 323.654V321.415C412.227 317.276 408.861 313.91 404.723 313.91H395.711C391.573 313.91 388.207 317.276 388.207 321.415V323.654C388.208 327.652 391.353 330.92 395.297 331.137ZM369.595 293.97H363.049C358.911 293.97 355.545 297.336 355.545 301.474V343.596C355.545 347.734 358.911 351.1 363.049 351.1H369.595C367.353 349.36 365.902 346.647 365.902 343.596V301.474C365.901 298.423 367.353 295.71 369.595 293.97ZM344.541 199.059C345.001 198.768 355.854 192.01 360.517 199.019C364.062 204.349 363.063 210.395 362.333 214.811C361.931 217.248 361.55 219.549 362.222 220.442C362.75 221.144 363.248 221.47 363.685 221.401C364.916 221.218 366.446 218.509 367.092 216.737C367.113 216.676 367.142 216.619 367.175 216.564C368.949 213.613 372.645 211.942 375.583 212.758C377.423 213.269 380.508 215.153 380.508 222.034C380.508 225.806 379.426 228.528 377.291 230.124C375.073 231.782 372.3 231.761 370.626 231.544C372.398 242.36 375.793 246.812 377.395 248.366C385.074 248.346 394.305 246.285 402.639 231.775C411.959 215.548 409.837 190.494 398.355 181.193C388.481 173.195 371.177 168.61 352.219 179.724C350.939 180.475 348.814 180.255 346.12 179.976C341.949 179.545 337.231 179.058 335.677 182.162C335.984 182.87 337.814 184.655 338.93 185.744C341.529 188.279 342.96 189.676 342.082 190.873C339.477 194.42 338.518 197.62 339.231 200.385C339.945 203.157 342.175 204.819 343.262 205.485C343.63 202.238 344.027 200.062 344.092 199.719C344.146 199.446 344.308 199.207 344.541 199.059ZM367.152 253.726C367.334 253.689 367.505 253.647 367.697 253.614C373.01 252.71 379.626 251.915 384.012 251.642L383.76 249.794C381.528 250.234 379.354 250.367 377.281 250.367C377.091 250.367 376.924 250.3 376.773 250.208C375.897 250.331 375.037 250.437 374.211 250.512C373.774 250.552 373.069 250.277 373.008 249.588C372.961 249.058 373.479 248.571 373.897 248.535C374.376 248.493 374.864 248.444 375.362 248.384C373.179 246.233 369.989 241.326 368.43 230.431C368.382 230.094 368.508 229.756 368.766 229.533C369.024 229.31 369.374 229.232 369.704 229.33C369.739 229.34 373.564 230.419 376.1 228.514C377.697 227.314 378.506 225.134 378.506 222.032C378.506 217.913 377.277 215.303 375.046 214.683C372.989 214.113 370.265 215.379 368.934 217.516C368.52 218.622 366.727 222.969 363.978 223.378C363.136 223.504 361.871 223.303 360.623 221.643C359.436 220.066 359.844 217.602 360.358 214.484C361.071 210.17 361.959 204.8 358.849 200.126C355.672 195.347 347.785 199.49 345.98 200.528C345.295 204.582 340.613 235.351 354.323 244.796C354.416 244.867 358.932 248.228 368.021 248.658C368.409 248.676 369.266 248.821 369.177 249.772C369.111 250.476 368.138 250.688 367.707 250.666C367.468 250.654 367.246 250.632 367.014 250.616L367.152 253.726ZM359.453 268.776C369.693 270.598 387.457 262.993 391.777 261.045C391.78 261.013 391.781 260.982 391.788 260.951C391.543 260.432 391.324 259.933 391.099 259.417C390.625 258.33 390.087 257.098 389.108 255.233L389.055 255.133C388.562 254.19 388.195 253.444 385.199 253.579C380.957 253.771 373.738 254.615 368.034 255.586C363.216 256.406 362.389 258.864 362.356 258.968L359.453 268.776ZM312.881 314.078C313.102 317.222 314.891 333.457 328.363 338.141C330.644 336.743 342.196 329.511 344.719 324.969C344.787 324.847 347.363 320.395 347.363 320.395C347.631 319.913 348.24 319.737 348.722 320.006C349.205 320.274 349.379 320.883 349.111 321.365L346.587 325.91C346.483 332.482 345.516 373.124 337.505 378.811C338.347 380.405 341.533 384.42 346.469 389.17C346.836 389.523 347.525 390.251 346.789 390.991C346.37 391.412 345.564 391.057 345.177 390.683C341.607 387.236 338.838 384.069 337.154 381.76C333.652 382.079 306.498 384.717 298.096 390.533C289.826 396.258 288.314 405.667 293.471 419.298C298.234 431.884 301.362 452.62 301.972 456.88C305.974 457.285 324.646 458.872 332.857 454.042L331.484 423.848L312.861 420.637C312.317 420.543 311.952 420.026 312.046 419.482C312.14 418.938 312.656 418.577 313.201 418.667L333.875 422.231C333.999 422.252 334.111 422.301 334.213 422.362C335.096 422.435 336.317 422.534 337.787 422.647C339.499 420.986 341.829 419.958 344.397 419.958H372.615H395.299V415.412C382.908 414.655 371.732 409.892 362.76 404.381C362.439 404.184 361.68 403.705 361.933 402.918C362.226 402.006 363.235 402.304 363.519 402.48C366.582 404.386 369.835 406.172 373.258 407.716C380.74 411.09 388.095 412.949 395.299 413.402V353.1H375.407H363.051C357.811 353.1 353.547 348.836 353.547 343.596V301.474C353.547 296.234 357.811 291.97 363.051 291.97H375.407H411.355C409.828 281.836 408.289 274.501 406.841 272.208C401.728 264.112 396.356 262.509 394.024 262.207L393.612 262.404C392.774 262.804 375.355 271.051 362.923 271.051C361.175 271.051 359.529 270.885 358.037 270.514C357.844 270.54 349.938 271.713 344.16 282.434C340.424 289.366 319.409 309.426 312.881 314.078ZM337.1 334.732H344.313C344.411 332.575 344.486 330.472 344.536 328.472C342.592 330.558 339.792 332.786 337.1 334.732ZM307.023 319.682C305.27 319.559 266.771 317.736 266.382 317.717C266.309 317.713 266.236 317.701 266.166 317.683C266.062 317.655 255.751 314.926 251.291 320.692C248.536 324.255 248.884 325.396 248.933 325.514C249 325.676 249.195 325.71 249.233 325.715L266.613 326.489C266.704 326.493 266.795 326.51 266.882 326.538C267.208 326.646 299.5 337.246 310.973 337.246H311.091C315.112 337.22 318.144 336.569 320.405 335.757C314.462 330.472 312.209 322.711 311.36 317.915C309.618 318.92 308.005 319.686 307.121 319.686C307.087 319.686 307.055 319.685 307.023 319.682ZM286.253 334.436C276.494 331.776 267.721 328.92 266.386 328.482L259.212 328.162C260.513 329.757 261.145 331.864 261.097 334.437L286.253 334.436ZM266.583 315.724C267.906 315.787 277.33 316.233 286.77 316.686L274.17 260.027C273.262 254.548 267.286 252.526 263.731 252.526H185.126C182.096 252.526 178.488 253.427 178.427 257.699L192.644 319.169H249.979C255.137 313.02 265.331 315.401 266.583 315.724ZM187.004 324.971H246.908C246.987 323.941 247.523 322.676 248.503 321.168H191.848C191.383 321.168 190.978 320.847 190.874 320.394L176.451 258.035C176.434 257.961 176.425 257.886 176.425 257.81C176.425 253.249 179.677 250.526 185.125 250.526H263.73C267.942 250.526 275.033 253.002 276.132 259.647L288.84 316.785C290.346 316.857 291.833 316.929 293.276 316.998L279.44 256.214C278.479 250.413 273.462 247.842 268.911 247.842H178.78C174.676 247.842 171.331 251.439 171.277 255.882L187.004 324.971ZM190.365 332.924C192.722 334.821 195.616 334.449 195.644 334.445C195.689 334.438 195.735 334.435 195.781 334.435H259.099C259.149 332.061 258.524 330.216 257.235 328.956C256.839 328.569 256.401 328.266 255.95 328.015L249.092 327.709C248.692 327.681 248.046 327.492 247.555 326.991L187.432 326.992C187.812 329.668 188.796 331.66 190.365 332.924ZM119.268 347.683L193.149 348.553V336.73L119.159 336.595L119.268 347.683ZM173.538 427.183H113.771C113.525 427.183 113.307 427.084 113.132 426.936V452.944H173.214C173.388 452.944 173.543 453 173.685 453.078L173.538 427.183ZM113.132 480.706H173.843L173.696 454.804C173.551 454.886 173.393 454.945 173.215 454.945H113.133L113.132 480.706ZM177.129 398.847V391.985H111.061C110.984 394.042 111.061 398.847 111.061 398.847H177.129ZM138.614 389.984V349.91L133.486 349.85V389.984H138.614ZM124.148 349.771V389.985H131.485V349.827L124.142 349.741C124.143 349.751 124.148 349.76 124.148 349.771ZM113.132 400.847V425.43C113.306 425.282 113.524 425.183 113.771 425.183H173.527L173.388 400.847H113.132ZM174 508.266L173.854 482.706H113.132V508.169C139.89 508.241 168.494 508.304 174 508.266ZM188.158 482.091V350.494L140.614 349.934V389.984H178.129C178.681 389.984 179.129 390.431 179.129 390.984V399.846C179.129 400.399 178.681 400.846 178.129 400.846H175.388L175.85 482.096C179.952 482.095 184.056 482.094 188.158 482.091ZM190.158 508.242C191.987 508.25 194 508.258 196 508.264V350.564H194.148C194.144 350.564 194.14 350.564 194.136 350.564L190.157 350.517V508.242H190.158ZM207.406 508.266V350.564H198V508.269C202.042 508.279 205.749 508.281 207.406 508.266ZM308.852 482.065C307.798 474.54 306.614 466.381 305.548 459.198C302.957 459.02 301.221 458.816 300.968 458.785C300.516 458.729 300.157 458.377 300.097 457.925C300.065 457.686 296.818 433.803 291.599 420.007C286.069 405.393 287.821 395.215 296.955 388.891C305.276 383.13 329.627 380.471 335.9 379.87C335.49 379.15 335.285 378.611 335.317 378.307C335.36 377.887 335.612 377.541 335.991 377.384C339.517 375.915 341.843 363.945 343.181 350.565H286.247C286.247 350.565 285.247 350.526 285.207 349.634C285.159 348.536 286.217 348.565 286.217 348.565H343.373C343.735 344.626 344.014 340.61 344.215 336.733H334.24C331.44 338.627 329.226 339.96 328.999 340.096C328.75 340.243 328.451 340.28 328.178 340.189C325.914 339.457 323.955 338.428 322.244 337.21C319.681 338.293 316.071 339.215 311.104 339.247H310.975C307.208 339.247 301.419 338.187 295.244 336.733H195.148V348.565H260.287C260.287 348.565 261.297 348.535 261.298 349.63C261.299 350.467 260.258 350.565 260.258 350.565H209.406V482.083C242.226 482.068 276.004 482.06 308.852 482.065ZM328.813 516.893L324.676 505.753C324.619 505.603 324.601 505.44 324.62 505.28C324.65 505.038 327.479 482.146 328.091 457.987C323.532 459.131 318.14 459.474 313.364 459.474C311.279 459.474 309.315 459.41 307.587 459.32C308.294 464.103 309.534 472.564 310.721 481.005C314.426 507.352 314.112 507.551 313.352 508.033C313.091 508.199 312.754 508.23 312.461 508.133H312.457C310.584 508.133 297.36 512.893 291.29 517.212L328.813 516.893ZM329.921 514.134L347.165 513.987C347.183 513.774 347.211 513.564 347.248 513.357H346.497C345.944 513.357 345.497 512.91 345.497 512.357V510.124C345.497 507.337 347.764 505.07 350.551 505.07H354.392L353.904 503.756C353.848 503.605 353.829 503.443 353.849 503.283C353.879 503.048 356.553 481.388 357.262 457.975C353.654 458.543 350.066 458.782 346.735 458.782C343.036 458.782 339.664 458.497 336.926 458.078C337.647 462.967 338.822 470.998 339.949 479.008C343.654 505.355 343.34 505.555 342.58 506.036C342.321 506.201 341.984 506.235 341.69 506.136H341.686C340.464 506.136 334.415 508.161 328.67 510.768L329.921 514.134ZM358.59 513.356H349.303C349.199 513.737 349.139 514.135 349.139 514.549C349.139 517.199 351.295 519.356 353.946 519.356C356.597 519.356 358.754 517.2 358.754 514.549C358.753 514.136 358.69 513.739 358.59 513.356ZM388.234 513.356H378.948C378.846 513.738 378.784 514.135 378.784 514.549C378.784 517.199 380.94 519.356 383.592 519.356C386.242 519.356 388.399 517.2 388.399 514.549C388.398 514.136 388.336 513.738 388.234 513.356ZM417.882 513.356H408.592C408.488 513.737 408.431 514.135 408.431 514.549C408.431 517.199 410.587 519.356 413.238 519.356C415.889 519.356 418.045 517.2 418.045 514.549C418.044 514.136 417.986 513.737 417.882 513.356ZM421.406 508.237H425.545V441.188C424.85 441.35 424.13 441.445 423.387 441.445H419.703V506.06C420.455 506.613 421.052 507.36 421.406 508.237ZM436.95 508.237V350.564H429.827C429.149 351.191 428.382 351.718 427.545 352.128V420.931C430.704 422.477 432.891 425.716 432.891 429.464V431.942C432.891 435.69 430.705 438.928 427.545 440.475V508.238L436.95 508.237ZM492.912 405.315C493.959 411.203 494.058 417.841 492.284 424.861H502.551C514.789 409.976 510.278 395.211 508.934 391.708C497.71 395.177 493.819 403.052 492.912 405.315ZM469.342 424.86H490.222C495.674 404.302 484.18 387.036 481.296 383.136C464.045 398.952 468.318 420.687 469.342 424.86ZM456.518 424.86H467.29C466.607 421.847 465.237 413.902 467.043 404.703C466.291 402.707 462.326 393.869 449.99 390.075C448.6 393.672 443.792 409.173 456.518 424.86ZM460.877 482.165C474.152 482.179 487.41 482.195 500.655 482.213L506.766 426.86H454.203L460.877 482.165ZM277.099 348.564H268.871C268.871 348.564 267.983 348.708 268.01 349.544C268.04 350.495 268.961 350.564 268.961 350.564H277.218C277.218 350.564 278.05 350.346 278.028 349.55C278.003 348.653 277.099 348.564 277.099 348.564ZM143.96 415.836C145.64 415.836 147.002 414.474 147.002 412.794C147.002 411.114 145.64 409.752 143.96 409.752C142.28 409.752 140.918 411.114 140.918 412.794C140.918 414.474 142.28 415.836 143.96 415.836ZM143.96 442.516C145.64 442.516 147.002 441.154 147.002 439.474C147.002 437.794 145.64 436.432 143.96 436.432C142.28 436.432 140.918 437.794 140.918 439.474C140.918 441.154 142.28 442.516 143.96 442.516ZM143.96 464.749C142.28 464.749 140.918 466.111 140.918 467.791C140.918 469.471 142.28 470.833 143.96 470.833C145.64 470.833 147.002 469.471 147.002 467.791C147.003 466.111 145.641 464.749 143.96 464.749ZM143.96 492.13C142.28 492.13 140.918 493.492 140.918 495.172C140.918 496.852 142.28 498.214 143.96 498.214C145.64 498.214 147.002 496.852 147.002 495.172C147.003 493.493 145.641 492.13 143.96 492.13ZM227.069 261C227.069 260.448 226.621 260 226.069 260H192.921C192.369 260 191.921 260.448 191.921 261C191.921 261.552 192.369 262 192.921 262H226.069C226.622 262 227.069 261.552 227.069 261ZM246.495 266.525C246.495 265.973 246.047 265.525 245.495 265.525H194.347C193.795 265.525 193.347 265.973 193.347 266.525C193.347 267.077 193.795 267.525 194.347 267.525H245.495C246.047 267.525 246.495 267.077 246.495 266.525ZM247.921 272.049C247.921 271.497 247.473 271.049 246.921 271.049H195.773C195.221 271.049 194.773 271.497 194.773 272.049C194.773 272.601 195.221 273.049 195.773 273.049H246.921C247.473 273.049 247.921 272.602 247.921 272.049ZM248.347 276.574H197.199C196.647 276.574 196.199 277.022 196.199 277.574C196.199 278.126 196.647 278.574 197.199 278.574H248.347C248.899 278.574 249.347 278.126 249.347 277.574C249.347 277.022 248.899 276.574 248.347 276.574ZM245.772 282.099H198.623C198.071 282.099 197.623 282.547 197.623 283.099C197.623 283.651 198.071 284.099 198.623 284.099H245.772C246.324 284.099 246.772 283.651 246.772 283.099C246.772 282.547 246.325 282.099 245.772 282.099ZM233.198 287.624H200.049C199.497 287.624 199.049 288.072 199.049 288.624C199.049 289.176 199.497 289.624 200.049 289.624H233.198C233.75 289.624 234.198 289.176 234.198 288.624C234.198 288.072 233.75 287.624 233.198 287.624Z" fill="#808080"/>
</svg>
