<svg width="35" height="35" viewBox="0 0 48 48" fill="none" xmlns="http://www.w3.org/2000/svg">
<path d="M23.75 44.65L33.1109 19.8587H37.324L46.9348 44.65H42.4435L40.337 38.1239H30.4261L27.9913 44.65H23.75ZM31.5544 34.5109H38.8805L35.2674 24.5H35.1674L31.5544 34.5109ZM7.46301 38.4522L4.65651 35.6174L15.1957 25.0782C13.8725 23.5739 12.7051 22.0518 11.6935 20.5119C10.6819 18.9721 9.79997 17.3833 9.04781 15.7456H13.5391C14.1058 16.8833 14.7449 17.9579 15.4565 18.9695C16.1681 19.9811 16.9667 21.0225 17.8522 22.0935C19.4087 20.4703 20.7058 18.7888 21.7435 17.0489C22.7812 15.309 23.6688 13.4942 24.4065 11.6043H1.29346V7.463H15.7457V3.34995H19.887V7.463H34.3109V11.6043H28.5196C27.7486 13.9797 26.7312 16.3134 25.4674 18.6054C24.2036 20.8975 22.6602 23.0717 20.837 25.1282L25.9065 30.2478L24.4065 34.4109L17.8022 28.113L7.46301 38.4522Z" fill="#0000CD"/>
</svg>
