<svg width="596" height="596" viewBox="0 0 596 596" fill="none" xmlns="http://www.w3.org/2000/svg">
<path d="M327.853 211.714C328.049 211.929 328.082 212.107 328.095 212.193C328.073 212.166 328.043 212.128 328.03 212.111C328.019 211.977 327.963 211.843 327.853 211.714ZM447.478 168.263V252.259H309.485V168.263H447.478ZM328.134 212.242C328.188 212.195 328.341 211.97 328.839 211.445C329.82 210.413 330.846 209.422 331.863 208.424C334.802 205.543 337.776 202.696 340.718 199.819C343.242 197.348 345.759 194.864 348.148 192.261C348.854 191.492 351.048 189.572 350.583 188.287C350.087 186.921 347.2 187.726 347.686 189.064C347.808 189.4 344.394 192.75 343.789 193.38C341.126 196.153 338.357 198.827 335.601 201.507C333.203 203.838 330.79 206.155 328.407 208.502C327.482 209.413 325.465 210.819 325.093 212.156C325.065 212.259 325.044 212.358 325.035 212.455C325.011 212.56 325.005 212.669 325.035 212.78C325.366 213.968 327.011 215.119 327.831 215.937C330.354 218.454 332.935 220.913 335.491 223.394C338.251 226.073 341.001 228.762 343.679 231.522C344.385 232.251 347.776 235.871 347.756 235.925C347.2 237.459 350.099 237.341 350.512 236.2C350.968 234.943 349.391 233.594 348.661 232.762C346.203 229.957 343.486 227.366 340.827 224.755C338.071 222.05 335.284 219.375 332.517 216.68C331.429 215.62 330.346 214.555 329.282 213.472C328.983 213.167 328.691 212.857 328.401 212.543C328.275 212.411 328.195 212.316 328.134 212.242ZM388.484 185.126C386.723 185.64 387.213 187.52 388.987 187.001C386.693 187.672 387.729 185.512 387.069 187.123C386.752 187.896 386.388 188.651 386.031 189.406C384.991 191.607 383.891 193.781 382.798 195.956C379.615 202.284 376.375 208.583 373.198 214.913C372.092 217.118 360.743 236.809 364.139 238.327C365.283 238.839 367.5 237.197 365.832 236.452C366.605 236.798 366.93 234.405 367.333 233.395C368.36 230.818 369.558 228.305 370.745 225.799C373.816 219.318 377.08 212.927 380.327 206.533C383.093 201.088 385.906 195.663 388.557 190.161C389.026 189.189 391.977 184.105 388.484 185.126ZM432.485 212.222C432.496 212.152 432.491 212.083 432.472 212.017C432.468 211.997 432.473 211.978 432.468 211.958C432.133 210.751 430.499 209.606 429.665 208.774C427.291 206.407 424.866 204.089 422.459 201.755C419.547 198.932 416.642 196.101 413.816 193.19C412.897 192.242 411.997 191.275 411.126 190.282C410.688 189.782 409.949 188.343 409.76 188.865C410.343 187.258 407.437 187.219 406.977 188.488C405.935 191.361 414.565 197.93 416.234 199.569C419.023 202.306 421.837 205.018 424.639 207.741C425.846 208.914 427.048 210.092 428.228 211.292C428.527 211.597 428.819 211.907 429.109 212.221C429.266 212.391 429.351 212.493 429.412 212.57C429.366 212.625 429.31 212.691 429.229 212.782C428.946 213.1 428.645 213.404 428.348 213.711C427.292 214.802 426.199 215.858 425.113 216.919C422.35 219.618 419.564 222.293 416.803 224.994C414.279 227.465 411.762 229.949 409.373 232.552C408.705 233.28 406.475 235.23 406.919 236.455C407.375 237.713 410.258 236.894 409.816 235.678C409.636 235.182 413.11 231.9 413.694 231.291C416.357 228.517 419.125 225.842 421.882 223.162C424.438 220.679 427.01 218.213 429.542 215.705C430.371 214.885 431.762 213.85 432.315 212.69C432.409 212.545 432.472 212.388 432.485 212.222ZM273.812 222.925H121.818V131.597H273.811V222.925H273.812ZM185.144 207.143C167.697 207.143 150.251 207.143 132.804 207.143C131.522 207.143 129.799 209.09 131.758 209.09C149.205 209.09 166.651 209.09 184.098 209.09C185.38 209.09 187.104 207.143 185.144 207.143ZM261.474 207.143C240.756 207.143 220.038 207.143 199.32 207.143C198.038 207.143 196.315 209.09 198.274 209.09C218.992 209.09 239.71 209.09 260.428 209.09C261.709 209.09 263.433 207.143 261.474 207.143ZM262.564 186.197C219.311 186.197 176.058 186.197 132.804 186.197C131.522 186.197 129.799 188.144 131.758 188.144C175.011 188.144 218.264 188.144 261.518 188.144C262.8 188.145 264.523 186.197 262.564 186.197ZM131.758 165.701C149.205 165.701 166.651 165.701 184.098 165.701C185.38 165.701 187.103 163.754 185.144 163.754C167.697 163.754 150.251 163.754 132.804 163.754C131.522 163.754 129.799 165.701 131.758 165.701ZM198.273 165.701C218.991 165.701 239.709 165.701 260.427 165.701C261.709 165.701 263.432 163.754 261.473 163.754C240.755 163.754 220.037 163.754 199.319 163.754C198.038 163.754 196.314 165.701 198.273 165.701ZM262.564 142.807C219.311 142.807 176.058 142.807 132.804 142.807C131.522 142.807 129.799 144.754 131.758 144.754C175.011 144.754 218.264 144.754 261.518 144.754C262.8 144.754 264.523 142.807 262.564 142.807ZM124.714 434.92C122.402 430.58 120.914 425.754 120.064 420.658C120.573 426.345 122.33 431.055 124.714 434.92ZM265.194 384.17C267.593 383.995 269.867 383.163 272.028 381.853C269.948 382.737 267.584 383.595 265.194 384.17ZM270.289 390.392C267.631 390.618 265.022 391.259 262.479 392.171C264.697 391.581 267.288 390.974 270.289 390.392ZM320.472 353.926C313.784 353.858 305.608 353.173 301.31 347.667C300.853 347.705 300.416 347.604 300.167 347.303C300.107 347.23 300.046 347.151 299.986 347.076C290.485 360.854 280.932 389.26 259.956 385.139C259.483 385.046 259.03 384.918 258.574 384.794C257.366 384.638 256.088 384.135 254.779 383.364C246.862 379.476 241.607 371.045 236.743 363.912C235.311 361.812 233.639 359.057 231.731 356.209C229.822 353.628 227.785 350.928 226.088 348.799C224.435 346.975 222.663 345.361 220.774 344.153C218.92 343.48 216.17 342.599 213.978 341.916C213.614 341.91 213.247 341.919 212.875 341.95C211.937 342.03 212.032 341.756 212.463 341.446C211.996 341.302 211.594 341.18 211.275 341.083C209.939 341.404 208.722 342.394 207.623 343.691C208.312 347.69 209.074 363.795 200.678 360.523C195.985 358.694 192.935 352.251 192.037 347.59C191.08 342.625 191.034 337.572 191.765 332.586C191.034 332.437 190.081 332.25 189.184 332.102C188.443 331.998 187.704 331.914 186.966 331.848C185.812 331.852 179.181 332.108 173.849 332.616C164.106 334.657 155.134 339.876 147.719 347.259C146.266 348.706 144.875 350.223 143.521 351.777L132.439 367.689C126.59 378.388 122.902 390.283 122.182 402.36C121.555 412.871 121.876 424.471 126.999 433.967C132.512 444.187 142.37 449.863 153.401 452.229C155.302 452.551 157.41 452.901 159.578 453.248C178.6 455.654 198.437 452.107 216.674 446.815C218.529 446.277 220.382 445.724 222.214 445.112C222.215 445.109 222.215 445.108 222.216 445.105C222.59 444.014 222.938 442.914 223.244 441.802C223.257 441.753 223.269 441.704 223.283 441.656C223.886 438.464 224.746 433.961 225.54 429.993C226.066 424.832 225.867 419.632 224.503 414.673C224.017 414.466 223.782 414.097 224.223 413.671C223.916 412.679 223.546 411.701 223.137 410.733C214.645 415.921 203.981 418.427 194.34 419.975C184.823 421.502 171.853 423.239 163.1 417.911C154.47 412.659 156.213 401.215 158.412 392.853C161.064 382.766 165.668 373.417 168.7 363.479C169.051 362.331 172.001 361.962 171.622 363.206C169.054 371.623 165.17 379.584 162.624 388.019C160.434 395.274 156.283 408.26 162.871 414.498C170.256 421.491 184.285 419.707 193.362 418.25C199.838 417.211 206.843 415.821 213.278 413.396C208.665 399.074 211.67 385.794 214.692 371.449C214.968 370.137 217.937 369.785 217.63 371.238C214.677 385.25 211.68 398.255 216.068 412.262C218.346 411.26 220.528 410.109 222.555 408.767C223.067 408.428 223.875 408.426 224.418 408.63C224.959 408.553 225.455 408.624 225.609 408.954C226.069 409.944 226.469 410.954 226.819 411.977C241.283 402.521 256.487 387.391 274.68 388.358C274.805 388.365 274.914 388.379 275.011 388.399C282.664 387.204 290.481 392.937 295.769 397.81C296.246 398.249 296.744 398.723 297.248 399.211L297.384 399.285C304.127 393.767 309.589 386.387 313.844 378.889C318.072 371.443 322.048 363.011 322.04 354.271C322.02 354.278 322.001 354.284 321.982 354.29C321.042 354.584 319.457 354.397 320.472 353.926Z" fill="#0000CD"/>
<path d="M206.716 311.065C206.695 308.827 206.248 305.486 203.268 306.026C203.002 306.074 201.864 306.135 202.058 305.557C202.255 304.967 203.213 304.752 203.728 304.659C205.182 304.395 207.137 304.325 208.245 305.514C209.437 306.793 209.599 308.619 209.614 310.287C209.623 311.284 206.722 311.787 206.716 311.065ZM253.781 330.632C257.689 328.019 257.602 323.13 256.946 318.954C256.745 317.673 253.839 318.396 254.049 319.731C254.552 322.934 254.967 327.325 251.881 329.389C250.245 330.483 252.649 331.389 253.781 330.632ZM244.617 340.823C245.276 340.971 246.18 340.76 246.666 340.274C246.793 340.146 246.921 340.02 247.052 339.897C247.092 339.859 247.426 339.586 247.315 339.666C247.371 339.628 247.429 339.593 247.486 339.558C247.493 339.556 247.526 339.541 247.547 339.533C247.569 339.532 247.577 339.531 247.61 339.53C248.276 339.514 249.125 339.331 249.519 338.726C249.888 338.161 249.209 337.813 248.72 337.825C246.96 337.867 245.561 338.516 244.329 339.748C243.898 340.179 243.993 340.683 244.617 340.823ZM72.714 333.809C71.559 333.776 69.648 335.49 71.611 335.545C88.969 336.04 90.456 361.612 91.778 374.261C94.377 399.132 102.536 422.968 102.71 448.176C102.719 449.458 105.622 448.857 105.615 447.842C105.434 421.582 97.181 396.536 94.369 370.6C92.916 357.191 90.393 334.313 72.714 333.809ZM412.949 409.63C415.793 415.404 405.793 421.626 402.129 424.04C391.499 431.043 379.846 436.519 368.272 441.751C355.017 447.743 341.57 453.294 328.093 458.765C320.118 462.002 311.782 464.864 304.128 468.829C303.638 469.083 303.134 469.075 302.748 468.924C301.792 469.376 300.581 469.657 299.037 469.72C291.79 470.013 284.821 468.284 277.745 466.972C273.266 466.141 268.741 465.732 264.276 464.83C255.223 463.002 246.233 460.847 237.252 458.696C234.84 458.118 232.429 457.539 230.02 456.95C227.512 456.337 228.407 448.462 228.691 446.848C227.853 446.502 227.885 445.408 229.255 445.113C243.955 441.948 258.641 437.431 272.44 431.433C271.719 431.014 271.009 430.484 270.312 429.834C266.687 426.457 263.96 419.29 258.872 417.9C251.35 415.846 246.18 428.63 243.127 433.388C239.208 439.494 234.077 442.907 226.713 443.117C226.45 443.125 226.235 443.09 226.057 443.026C225.724 443.92 225.326 444.711 224.828 445.309C223.745 446.614 220.414 447.005 218.944 447.443C213.82 448.97 208.638 450.318 203.408 451.429C184.45 455.459 162.398 458.462 143.771 451.39C134.574 447.898 128.521 442.072 124.712 434.918C122.4 430.578 120.912 425.752 120.062 420.656C119.042 414.543 118.931 408.048 119.388 401.555C121.347 373.743 140.746 342.135 167.801 332.844C167.601 332.752 167.448 332.607 167.379 332.395C165.474 326.563 163.976 320.524 161.33 314.964C159.629 311.391 156.474 304.656 151.834 304.259C145.692 303.733 139.173 305.12 133.026 306.583C132.989 306.745 132.961 306.907 132.92 307.068C132.746 307.742 129.941 308.114 130.07 307.611C130.099 307.5 130.12 307.385 130.147 307.274C129.618 307.401 129.091 307.527 128.57 307.649C118.837 309.936 109.185 312.6 99.638 315.571C95.728 316.788 91.616 317.912 87.673 319.353C86.089 320.658 84.093 321.58 81.619 321.969C81.558 322.001 81.494 322.028 81.434 322.06C80.9 322.341 80.331 322.322 79.939 322.14C79.796 322.149 79.654 322.157 79.508 322.161C59.684 330.043 59.378 356.01 61.426 374.64C63.077 389.665 65.696 404.252 69.287 418.927C70.577 424.196 71.812 429.489 73.358 434.69C74.347 438.015 75.457 444.543 78.633 446.583C79.9 447.396 77.263 448.677 76.357 448.095C73.024 445.954 71.831 440.076 70.798 436.602C69.048 430.717 67.647 424.745 66.164 418.789C62.246 403.055 59.376 387.143 58.102 370.958C56.655 352.561 58.775 330.64 75.852 321.888C54.558 317.701 54.248 269.708 68.355 270.423C68.674 270.027 69.238 269.727 69.816 269.774C83.217 263.665 102.688 254.976 115.734 264.075C122.275 268.637 126.557 276.583 129.44 283.824C132.009 290.281 134.376 297.717 133.363 304.774C133.611 304.722 133.859 304.666 134.107 304.615C140.286 303.347 148.894 300.683 155.152 302.86C159.509 304.376 162.486 310.277 164.227 314.187C166.74 319.832 168.362 325.758 170.276 331.617C170.329 331.779 170.31 331.933 170.248 332.077C177.057 330.113 184.317 329.565 191.881 330.829C191.89 330.823 191.895 330.817 191.904 330.811C191.977 330.762 192.044 330.707 192.117 330.658C192.263 330.394 192.594 330.18 192.98 330.035C196.329 327.588 199.133 324.594 201.94 321.571C198.803 322.345 195.559 321.863 193.648 318.577C190.754 313.601 191.034 306.808 194.524 302.137C195.693 300.571 197.148 299.206 198.752 298.109C198.283 298.253 197.998 298.346 197.998 298.346L198.058 297.506C197.664 297.44 197.377 297.238 197.38 296.854C197.492 278.106 203.005 256.875 222.04 248.829C225.399 247.409 228.847 246.583 232.269 246.299C233.534 246.054 234.871 246.045 236.238 246.215C245.334 246.581 253.912 250.806 259.746 258.146C260.252 254.936 262.266 252.306 266.472 253.389C273.935 255.31 275.677 264.751 272.921 271.051C271.809 273.593 270.25 275.539 268.37 277.023C268.042 277.459 267.462 277.838 266.695 278.168C257.349 283.749 241.962 280.333 231.536 279.143C231.284 283.708 230.421 288.075 228.792 292.021C228.701 292.308 228.604 292.586 228.5 292.848C228.319 293.301 228.058 293.787 227.736 294.296C225.65 298.36 222.627 301.875 218.494 304.578C222.009 305.397 225.427 306.66 229.028 307.203C229.186 301.621 230.512 295.532 233.524 291.5C233.852 291.062 235.087 290.785 235.805 290.875C246.513 284.751 251.174 296.718 249.95 307.22C251.99 307.22 254.029 307.22 256.069 307.22C256.121 307.22 256.178 307.224 256.236 307.231C256.711 301.881 258.153 296.26 260.854 292.174C261.117 291.778 262.069 291.503 262.79 291.496C263.526 290.992 264.247 290.595 264.948 290.299C264.829 286.761 264.714 283.348 264.704 280.153C264.701 279.015 267.618 278.477 267.622 279.866C267.632 283.123 267.701 286.383 267.767 289.644C271.079 289.57 273.532 292.199 274.113 297.044C274.864 303.317 274.507 314.517 268.727 318.684C267.946 319.247 267.149 319.693 266.353 320.041C265.067 327.734 262.649 335.49 257.454 341.229C249.869 349.609 239.092 351.905 228.552 347.879C228.481 347.852 228.409 347.818 228.338 347.79C230.018 349.634 231.533 351.625 232.909 353.495C239.243 362.099 244.491 372.573 252.855 379.438C257.306 383.092 261.405 384.444 265.193 384.167C267.592 383.992 269.866 383.16 272.027 381.85C283.283 375.024 291.459 355.117 298.063 346.254C298.223 346.039 298.58 345.881 298.988 345.773C293.367 338.031 288.078 323.999 294.759 315.913C297.303 312.834 300.947 311.353 304.676 310.19C305.707 309.869 306.716 309.515 307.714 309.149C314.852 298.834 306.661 271.217 324.978 271.784C335.37 272.105 334.043 288.918 331.984 300.005C332.237 299.896 332.494 299.824 332.718 299.823C337.274 299.805 340.065 301.34 341.614 303.744C347.64 304.463 350.552 308.235 351.41 312.973C362.596 315.798 356.629 329.7 351.753 336.064C350.518 337.676 347.493 340.641 344.595 342.252C344.844 342.282 344.959 342.37 344.799 342.54C339.445 348.225 332.225 351.028 324.94 353.361C324.997 362.641 320.706 371.865 315.972 379.626C311.259 387.353 305.633 394.814 298.398 400.353C302.736 404.775 307.267 410.75 306.772 416.887C319.081 412.942 330.848 407.262 342.88 402.593C343.733 402.263 344.673 402.609 344.886 403.095C367.253 403.266 389.788 404.898 411.78 409.026C412.01 409.03 412.232 409.068 412.424 409.15C412.836 409.245 412.98 409.422 412.949 409.63ZM80.192 320.074C81.173 319.744 82.181 319.438 83.244 319.183C84.116 318.799 85.001 318.436 85.898 318.09C91.751 313.497 90.374 302.115 88.435 295.689C85.718 286.683 79.781 274.858 69.864 272.114C69.493 272.492 68.904 272.756 68.326 272.639C59.976 270.962 61.666 293.796 62.288 297.729C63.82 307.407 68.245 320.871 80.192 320.074ZM130.52 305.387C132.346 293.317 125.166 277.9 117.641 269.282C105.445 255.313 85.844 263.572 71.298 270.134C82.912 273.518 89.987 287.311 92.194 298.337C93.442 304.57 93.254 311.75 90.125 316.591C93.792 315.389 97.528 314.362 101.093 313.279C110.8 310.33 120.604 307.572 130.52 305.387ZM351.663 315.162C351.968 320.793 349.863 327.245 346.888 331.484C345.247 333.821 343.322 336.533 340.971 338.549C341.294 342.221 343.067 342.805 345.83 340.103C348.566 337.427 350.86 334.183 352.504 330.724C355.002 325.467 356.563 318.3 351.663 315.162ZM342.695 306.174C344.624 312.812 340.748 323.007 337.346 328.488C336.346 330.098 335.105 331.994 333.636 333.692C333.688 335.413 333.99 340.432 336.366 339.219C338.08 338.344 339.516 336.958 340.78 335.525C343.065 332.932 345.249 330.063 346.737 326.922C348.452 323.3 349.382 318.238 348.612 313.952C348.508 313.93 348.409 313.902 348.301 313.881C348.033 313.828 348.183 313.658 348.511 313.468C347.801 310.138 346.011 307.346 342.695 306.174ZM330.332 307.456C331.244 309.748 331.297 312.504 330.546 314.697C329.051 319.063 325.442 322.379 321.174 324.575C321.992 324.345 322.955 324.447 322.948 325.17C322.933 326.855 322.958 338.601 327.42 336.373C328.621 335.773 329.716 334.904 330.716 333.883C330.712 333.747 330.706 333.609 330.703 333.48C330.69 332.927 331.341 332.521 332.032 332.396C333.771 330.222 335.17 327.664 336.275 325.476C339.968 318.162 345.035 301.55 331.692 301.532C331.204 303.967 330.707 306.027 330.332 307.456ZM311.113 307.832C313.761 306.754 316.375 305.613 319.091 304.567C321.561 303.617 325.67 302.405 328.061 304.285C328.147 304.352 328.225 304.43 328.308 304.501C329.322 299.832 329.953 295.029 330.105 290.291C330.259 285.521 330.609 276.795 325.751 273.882C316.694 268.45 315.386 284.403 314.925 289.484C314.388 295.401 314.375 302.575 311.113 307.832ZM301.815 344.764C302.338 344.665 302.808 344.688 302.945 344.954C306.659 352.174 315.924 352.719 323.103 352.752C323.339 352.753 323.454 352.788 323.491 352.843C323.698 352.8 323.902 352.772 324.091 352.757C330.529 350.684 336.813 348.203 341.67 343.328C340.03 343.532 338.72 342.792 338.23 340.414C337.55 340.762 336.842 341.048 336.098 341.237C332.554 342.141 331.339 339.214 330.917 336.296C329.377 337.466 327.659 338.264 325.762 338.332C319.756 338.55 320.011 329.453 320.045 325.516C320.046 325.329 320.15 325.158 320.316 325.008C316.782 326.669 312.873 327.583 309.356 327.695C307.378 327.758 308.022 325.711 309.636 325.66C316.398 325.447 328.151 320.871 328.045 312.57C327.985 307.831 326.141 304.205 320.889 306.012C317.897 307.041 315.158 308.608 312.247 309.825C306.15 312.373 296.973 312.67 295.461 320.669C293.861 329.139 296.704 337.954 301.815 344.764ZM267.799 291.206C267.935 298.315 268 305.426 267.317 312.511C267.144 314.307 266.935 316.148 266.669 318.001C270.373 314.929 271.226 307.765 271.412 303.534C271.538 300.641 271.251 292.03 267.799 291.206ZM264.057 319.328C265.505 310.436 265.296 300.849 265.005 291.958C264.886 292.036 264.77 292.108 264.648 292.199C264.398 292.383 263.857 292.506 263.329 292.543C260.65 297.429 255.462 321.452 264.057 319.328ZM241.606 318.799C250.861 314.778 248.157 285.342 237.308 291.797C236.962 292.002 236.359 292.081 235.852 292.042C231.719 298.746 228.233 324.607 241.606 318.799ZM215.718 300.083C215.803 300.256 215.878 300.444 215.957 300.627L216 300.349C216 300.349 215.895 300.245 215.718 300.083ZM194.849 331.085C194.828 331.21 194.806 331.335 194.785 331.461C194.974 331.602 194.906 331.786 194.699 331.974C193.503 339.62 193.754 348.487 198.45 354.88C199.024 355.66 202.332 360.609 203.622 358.289C204.305 357.06 204.734 355.726 204.937 354.335C205.274 352.013 205.304 349.713 205.102 347.413C203.934 349.45 202.965 351.501 202.2 352.78C201.627 353.739 198.685 353.873 199.463 352.573C202.634 347.271 206.554 337.759 214.339 339.202C219.624 340.182 223.954 343.688 228.901 345.578C237.064 348.696 245.841 349.3 252.725 342.929C259.006 337.115 262.216 329.314 263.798 320.793C259.856 321.378 256.476 319.13 256.137 313.842C256.03 312.177 256.028 310.383 256.139 308.539C255.748 308.713 255.304 308.801 254.926 308.801C253.191 308.801 251.456 308.801 249.721 308.801C248.954 313.144 247.146 317.05 244.304 319.051C238.176 323.366 230.362 320.732 229.327 313.231C229.115 311.693 229.008 310 229.013 308.242C228.481 308.593 227.719 308.88 227.283 308.814C223.466 308.242 219.85 306.769 216.093 305.997C216.059 306.015 216.029 306.034 215.995 306.052C215.376 306.557 215.001 306.85 215.001 306.85L215.07 306.403C214.072 306.58 212.612 306.49 213.99 305.795C214.063 305.759 214.127 305.715 214.199 305.678C213.563 305.596 212.922 305.54 212.274 305.52C210.312 305.457 212.271 303.802 213.391 303.838C213.541 303.843 213.686 303.865 213.835 303.874C213.027 300.094 210.787 296.226 206.247 296.757C202.349 297.214 198.594 299.716 196.696 303.188C193.319 309.367 194.573 325.486 205.24 318.151C205.961 317.656 208.564 317.754 207.349 318.998C203.266 323.174 199.575 327.644 194.849 331.085ZM225.543 429.993C226.069 424.832 225.87 419.632 224.506 414.673C224.02 414.466 223.785 414.097 224.226 413.671C223.919 412.679 223.549 411.701 223.14 410.733C214.648 415.921 203.984 418.427 194.343 419.975C184.826 421.502 171.856 423.239 163.103 417.911C154.473 412.659 156.216 401.215 158.415 392.853C161.067 382.766 165.671 373.417 168.703 363.479C169.054 362.331 172.004 361.962 171.625 363.206C169.057 371.623 165.173 379.584 162.627 388.019C160.437 395.274 156.286 408.26 162.874 414.498C170.259 421.491 184.288 419.707 193.365 418.25C199.841 417.211 206.846 415.821 213.281 413.396C208.668 399.074 211.673 385.794 214.695 371.449C214.971 370.137 217.94 369.785 217.633 371.238C214.68 385.25 211.683 398.255 216.071 412.262C218.349 411.26 220.531 410.109 222.558 408.767C223.07 408.428 223.878 408.426 224.421 408.63C224.962 408.553 225.458 408.624 225.612 408.954C226.072 409.944 226.472 410.954 226.822 411.977C241.286 402.521 256.49 387.391 274.683 388.358C274.808 388.365 274.917 388.379 275.014 388.399C282.667 387.204 290.484 392.937 295.772 397.81C296.249 398.249 296.747 398.723 297.251 399.211C297.286 399.244 297.32 399.277 297.355 399.312C297.366 399.303 297.376 399.295 297.387 399.286C304.13 393.768 309.592 386.388 313.847 378.89C318.075 371.444 322.051 363.012 322.043 354.272C322.023 354.279 322.004 354.285 321.985 354.291C321.042 354.584 319.457 354.397 320.472 353.926C313.784 353.858 305.608 353.173 301.31 347.667C300.853 347.705 300.416 347.604 300.167 347.303C300.107 347.23 300.046 347.151 299.986 347.076C290.485 360.854 280.932 389.26 259.956 385.139C259.483 385.046 259.03 384.918 258.574 384.794C257.242 384.435 255.979 383.954 254.779 383.364C246.862 379.476 241.607 371.045 236.743 363.912C235.311 361.812 233.639 359.057 231.731 356.209C230.036 353.68 228.154 351.079 226.088 348.799C224.435 346.975 222.663 345.361 220.774 344.153C218.655 342.798 216.39 341.955 213.978 341.916C213.614 341.91 213.247 341.919 212.875 341.95C211.937 342.03 212.032 341.756 212.463 341.446C212.666 341.3 212.943 341.149 213.224 341.022C212.883 340.985 212.543 340.965 212.205 340.965C211.889 340.965 211.58 341.01 211.275 341.082C209.939 341.403 208.722 342.393 207.623 343.69C208.312 347.689 209.074 363.794 200.678 360.522C195.985 358.693 192.935 352.25 192.037 347.589C191.08 342.624 191.034 337.571 191.765 332.585C191.767 332.572 191.77 332.559 191.772 332.545C190.907 332.372 190.044 332.222 189.184 332.101C188.443 331.997 187.704 331.913 186.966 331.847C182.49 331.443 178.096 331.725 173.849 332.615C164.106 334.656 155.134 339.875 147.719 347.258C146.266 348.705 144.875 350.222 143.521 351.776C139.286 356.635 135.555 361.989 132.439 367.688C126.59 378.387 122.902 390.282 122.182 402.359C121.555 412.87 121.876 424.47 126.999 433.966C132.512 444.186 142.37 449.862 153.401 452.228C154.158 452.391 154.921 452.539 155.688 452.67C156.98 452.892 158.277 453.082 159.578 453.246C178.6 455.652 198.437 452.105 216.674 446.813C218.529 446.275 220.382 445.722 222.214 445.11C222.215 445.107 222.215 445.106 222.216 445.103C222.59 444.012 222.938 442.912 223.244 441.8C223.257 441.751 223.269 441.702 223.283 441.654C224.32 437.879 225.14 433.949 225.543 429.993ZM280.525 429.308C280.617 429.249 280.716 429.205 280.818 429.167C282.934 423.079 277.939 414.397 274.147 410.004C268.129 403.032 259.925 404.142 251.612 404.212C249.653 404.23 251.571 402.483 252.714 402.474C261.335 402.4 270.83 401.242 276.83 408.841C279.794 412.595 283.614 418.455 284.22 423.938C286.982 414.623 281.55 404.44 274.148 398.566C273.408 397.978 276.073 396.844 276.845 397.457C280.481 400.343 283.567 404.169 285.531 408.409C286.149 408.323 286.761 408.461 286.945 408.955C288.59 413.369 292.526 417.164 296.654 419.322C297.99 420.019 302.116 422.239 303.182 420.047C303.256 419.896 303.305 419.736 303.364 419.579C302.592 419.307 302.62 418.315 303.74 417.875C303.881 416.241 303.517 414.511 303.081 413.003C301.36 407.049 296.807 402.094 292.141 398.177C287.578 394.347 281.024 389.28 274.669 390.284C274.401 390.326 274.188 390.324 274.017 390.294C273.891 390.319 273.766 390.335 273.643 390.328C272.517 390.268 271.399 390.298 270.289 390.392C267.631 390.618 265.022 391.259 262.479 392.171C257.025 394.125 251.877 397.323 247.234 400.401C240.565 404.822 234.215 409.734 227.43 413.979C229.122 420.207 229.005 426.87 227.925 433.237C227.597 435.169 227.33 438.232 226.683 440.932C226.767 440.917 226.854 440.906 226.946 440.903C236.805 440.622 240.048 433.28 244.55 425.858C247.159 421.555 251.271 416.485 256.583 415.624C266.996 413.936 271.017 435.334 280.525 429.308ZM285.974 426.425C289.576 425.556 292.856 423.571 296.019 421.644C292.924 420.232 289.951 418.157 287.635 415.558C288.099 419.186 287.646 422.896 285.974 426.425ZM234.348 445.856C256.806 451.413 280.462 450.746 303.07 455.588C303.713 454.966 305.038 454.744 305.472 455.264C321.997 446.983 339.534 440.485 356.526 433.276C367.799 428.494 379.059 423.688 390.011 418.2C394.843 415.778 399.631 413.165 404.622 411.08C405.338 410.781 406.074 410.472 406.823 410.191C385.474 406.434 363.615 405.032 341.966 404.946C330.153 409.646 318.546 415.124 306.406 418.921C305.261 422.534 301.479 423.364 298.045 422.412C294.181 424.754 290.152 427.212 285.696 428.093C285.144 428.202 284.741 428.117 284.479 427.953C284.312 427.998 284.142 428.032 283.972 428.054C283.874 428.434 283.762 428.809 283.616 429.176C283.523 429.41 283.289 429.607 282.996 429.761C283.111 430.046 282.989 430.384 282.469 430.714C279.809 432.401 277.206 433.003 274.713 432.372C274.582 432.511 274.392 432.646 274.112 432.768C261.385 438.338 247.91 442.672 234.348 445.856ZM302.898 466.222C303.804 463.62 303.133 460.331 302.818 457.512C302.746 457.511 302.677 457.504 302.616 457.491C279.262 452.255 254.726 453.179 231.522 447.22C231.124 449.894 231.261 452.572 232.126 455.161C232.229 455.199 232.375 455.247 232.605 455.303C235.012 455.888 237.419 456.468 239.829 457.042C247.058 458.767 254.291 460.483 261.558 462.043C270.199 463.898 278.981 465.216 287.69 466.709C290.229 467.145 301.623 469.887 302.898 466.222ZM410.217 410.81C410.053 410.779 409.888 410.75 409.724 410.72C407.602 410.653 404.513 412.545 402.757 413.39C400.562 414.446 398.382 415.53 396.206 416.624C390.852 419.317 385.498 422.02 380.038 424.492C371.312 428.444 362.493 432.187 353.668 435.912C337.677 442.661 321.174 448.788 305.693 456.679C305.97 459.992 306.403 463.384 305.497 465.881C311.882 462.834 318.656 460.441 325.182 457.792C337.582 452.76 349.974 447.693 362.205 442.261C374.03 437.01 385.995 431.631 397.022 424.819C400.425 422.716 412.282 416.422 410.217 410.81ZM323.639 414.928C305.379 421.846 287.794 430.411 269.639 437.594C267.73 438.35 269.522 438.884 270.687 438.424C288.842 431.24 306.427 422.675 324.687 415.758C326.608 415.029 324.805 414.486 323.639 414.928ZM331.639 418.26C313.379 425.178 295.794 433.745 277.639 440.926C275.73 441.681 277.522 442.216 278.687 441.756C296.842 434.574 314.427 426.007 332.687 419.09C334.608 418.361 332.805 417.818 331.639 418.26ZM304.975 448.996C303.473 448.969 301.977 448.875 300.484 448.76C299.662 449.091 298.844 449.433 298.02 449.758C296.855 450.218 295.063 449.683 296.972 448.928C297.294 448.801 297.614 448.666 297.935 448.537C294.281 448.175 290.639 447.683 286.983 447.349C285.553 447.934 284.123 448.522 282.686 449.089C281.521 449.549 279.729 449.014 281.638 448.259C282.555 447.897 283.467 447.518 284.381 447.148C283.248 447.074 282.112 447.016 280.974 446.996C279.012 446.96 280.712 445.006 282.015 445.029C284.207 445.069 286.388 445.229 288.564 445.438C291.36 444.272 294.144 443.073 296.92 441.856C295.607 441.761 294.293 441.686 292.974 441.662C291.012 441.626 292.712 439.672 294.015 439.695C296.296 439.737 298.564 439.909 300.828 440.131C303.494 438.941 306.152 437.733 308.806 436.514C307.531 436.424 306.254 436.352 304.973 436.328C303.011 436.292 304.711 434.338 306.014 434.361C308.214 434.401 310.402 434.562 312.586 434.772C315.185 433.568 317.779 432.358 320.371 431.145C319.241 431.072 318.108 431.014 316.973 430.994C315.011 430.958 316.711 429.004 318.014 429.027C320.058 429.064 322.093 429.204 324.124 429.391C325.837 428.589 327.55 427.787 329.263 426.989C330.134 426.583 331.01 426.181 331.884 425.778C330.916 425.719 329.946 425.677 328.973 425.66C327.011 425.624 328.711 423.67 330.014 423.693C331.917 423.728 333.811 423.854 335.702 424.022C338.317 422.826 340.937 421.632 343.556 420.43C342.697 420.382 341.836 420.341 340.973 420.326C339.011 420.29 340.711 418.336 342.014 418.359C343.809 418.392 345.597 418.51 347.381 418.663C349.912 417.487 352.433 416.29 354.941 415.071C354.285 415.041 353.63 415.004 352.973 414.992C351.011 414.956 352.711 413.002 354.014 413.025C355.547 413.053 357.073 413.149 358.597 413.268C361.304 411.913 363.991 410.524 366.638 409.075C367.397 408.659 370.048 408.679 368.349 409.61C365.916 410.942 363.448 412.22 360.964 413.474C364.78 413.851 368.584 414.366 372.404 414.703C375.63 413.108 378.827 411.465 381.971 409.741C382.73 409.325 385.381 409.345 383.682 410.276C380.768 411.874 377.808 413.401 374.824 414.889C375.885 414.955 376.948 415.005 378.014 415.025C379.976 415.061 378.276 417.015 376.973 416.992C375.047 416.957 373.129 416.829 371.215 416.657C368.691 417.88 366.154 419.081 363.607 420.261C364.409 420.304 365.21 420.344 366.014 420.359C367.976 420.395 366.276 422.349 364.973 422.326C363.232 422.294 361.498 422.18 359.767 422.034C357.156 423.231 354.543 424.419 351.936 425.609C352.628 425.643 353.32 425.68 354.014 425.693C355.976 425.729 354.276 427.683 352.973 427.66C351.328 427.63 349.69 427.524 348.055 427.39C347.111 427.825 346.165 428.258 345.224 428.696C343.606 429.449 341.988 430.205 340.37 430.961C340.918 430.984 341.466 431.018 342.015 431.027C343.977 431.063 342.277 433.017 340.974 432.994C339.483 432.967 337.998 432.874 336.515 432.76C333.97 433.948 331.423 435.135 328.872 436.316C329.253 436.33 329.633 436.355 330.015 436.362C331.977 436.398 330.277 438.352 328.974 438.329C327.624 438.305 326.279 438.225 324.935 438.127C322.341 439.317 319.742 440.497 317.136 441.66C317.429 441.67 317.722 441.691 318.015 441.696C319.977 441.732 318.277 443.686 316.974 443.663C315.658 443.639 314.347 443.563 313.036 443.469C310.311 444.663 307.578 445.839 304.834 446.983C305.228 446.998 305.62 447.024 306.014 447.031C307.979 447.065 306.278 449.02 304.975 448.996ZM349.785 418.893C353.55 419.284 357.305 419.78 361.077 420.089C363.683 418.886 366.283 417.668 368.869 416.425C365.063 416.023 361.267 415.523 357.452 415.228C354.909 416.473 352.353 417.693 349.785 418.893ZM338.102 424.259C341.861 424.655 345.612 425.149 349.381 425.447C352.028 424.232 354.686 423.023 357.342 421.808C353.586 421.42 349.839 420.923 346.076 420.61C343.419 421.833 340.759 423.047 338.102 424.259ZM326.462 429.629C330.253 430.036 334.036 430.533 337.838 430.816C340.092 429.761 342.345 428.707 344.598 427.656C344.946 427.494 345.296 427.334 345.644 427.173C341.883 426.792 338.132 426.291 334.366 425.967C332.871 426.653 331.379 427.339 329.892 428.03C328.749 428.562 327.605 429.096 326.462 429.629ZM314.917 435.01C318.712 435.425 322.5 435.923 326.31 436.186C328.917 434.982 331.52 433.77 334.122 432.555C330.348 432.185 326.587 431.674 322.81 431.334C320.181 432.562 317.55 433.787 314.917 435.01ZM303.184 440.372C306.957 440.79 310.724 441.282 314.512 441.535C317.186 440.349 319.851 439.144 322.512 437.929C318.752 437.571 315.005 437.06 311.244 436.708C308.563 437.942 305.876 439.164 303.184 440.372ZM302.126 446.84C304.947 445.678 307.756 444.484 310.557 443.267C306.835 442.914 303.126 442.412 299.404 442.058C296.61 443.292 293.805 444.5 290.991 445.685C294.701 446.093 298.404 446.575 302.126 446.84ZM536.952 250.94C536.952 281.912 536.952 312.883 536.952 343.856C536.952 344.323 536.416 344.692 535.804 344.856C536.002 345.285 535.719 345.919 534.79 346.228C520.026 351.157 507.16 360.142 492.952 366.326C492.952 374.606 492.952 382.887 492.952 391.167C503.923 382.617 519.123 386.457 531.379 390.935C532.407 390.598 534.467 390.718 533.321 391.572C534.444 390.736 534.803 395.876 533.93 397.031C528.775 403.856 519.194 407.947 511.949 412.068C502.186 417.622 492.45 423.249 482.611 428.664C478.883 430.716 475.039 433.318 470.975 434.661C469.085 435.285 467.437 435.557 465.448 435.56C464.866 435.56 464.265 435.3 463.673 435.074C463.336 435.168 462.98 435.17 462.671 435.028C462.457 434.93 462.24 434.842 462.023 434.754C461.48 434.758 461.202 434.614 461.122 434.408C456.498 432.762 451.361 432.722 446.914 430.594C444.041 429.219 439.038 425.061 440.773 421.147C441.852 418.712 445.727 416.299 447.834 414.885C450.796 412.898 453.877 411.12 457.095 409.575C464.575 405.982 472.407 403.056 479.427 398.573C479.612 398.455 479.823 398.385 480.041 398.347C480.041 390.016 480.041 381.686 480.041 373.355C467.384 380.488 454.92 387.954 442.316 395.177C436.001 398.797 429.668 402.402 423.18 405.706C423.105 405.744 423.029 405.772 422.954 405.809C422.954 405.826 422.954 405.841 422.954 405.857C422.954 406.689 421.257 407.211 420.454 406.812C419.486 407.116 418.495 407.347 417.457 407.536C415.416 407.908 414.084 406.622 412.226 406.75C412.185 406.753 412.154 406.751 412.115 406.752C411.254 407.104 410.04 407.033 410.04 406.162C410.04 383.719 410.04 361.274 410.04 338.83C410.04 322.99 410.04 307.149 410.04 291.309C409.383 291.163 409.325 290.632 410.04 290.282C410.04 290.181 410.04 290.08 410.04 289.978C408.983 290.067 408.055 289.486 409.621 288.861C430.477 280.54 451.991 273.666 473.234 266.414C485.074 262.372 496.832 258.22 508.526 253.768C514.701 251.417 521.22 248.077 527.811 247.198C529.71 246.944 532.995 247.267 535.145 248.51C535.969 248.274 536.953 248.409 536.953 249.193C536.953 249.448 536.953 249.703 536.953 249.958C536.992 249.966 537.034 249.965 537.072 249.975C537.899 250.171 537.565 250.604 536.952 250.94ZM412.919 288.963C412.94 289.032 412.951 289.108 412.951 289.191C412.951 289.431 412.951 289.672 412.951 289.914C414.483 289.992 415.942 290.366 417.62 290.458C421.167 290.652 424.956 288.754 428.257 287.607C434.176 285.549 440.111 283.538 446.054 281.546C458.799 277.276 471.572 273.09 484.327 268.853C495.174 265.249 505.723 261.067 516.306 256.755C521.037 254.827 525.767 252.874 530.607 251.233C531.465 250.941 532.483 250.55 533.527 250.257C529.693 245.46 516.947 251.945 512.536 253.621C506.466 255.927 500.412 258.284 494.31 260.506C484.89 263.938 475.337 267.021 465.855 270.277C448.186 276.346 430.319 282.13 412.919 288.963ZM420.039 405.396C420.039 383.208 420.039 361.019 420.039 338.83C420.039 323.274 420.041 307.719 420.041 292.162C420.041 291.986 420.123 291.826 420.25 291.683C419.911 291.751 419.571 291.808 419.229 291.836C417.242 292 415 291.314 412.951 291.182C412.951 306.963 412.951 322.745 412.951 338.526C412.951 360.738 412.951 382.95 412.951 405.163C416.048 405.056 416.621 406.587 420.039 405.396ZM483.61 347.62C483.686 347.924 483.383 348.212 482.951 348.425C482.951 368.68 482.951 388.935 482.951 409.191C482.951 409.212 482.943 409.23 482.941 409.25C485.387 410.475 488.189 411.288 490.218 409.971C490.108 409.851 490.038 409.698 490.038 409.496C490.038 387.053 490.038 364.608 490.038 342.164C490.038 342.137 490.048 342.111 490.051 342.084C489.669 342.071 489.388 341.963 489.379 341.732C489.305 340.014 487.212 339.383 485.81 339.997C482.908 341.265 482.971 345.053 483.61 347.62ZM492.952 393.152C492.952 397.792 492.952 402.432 492.952 407.072C493.839 406.814 495.039 406.799 494.921 407.076C492.277 413.292 484.4 412.526 479.46 409.825C479.349 409.764 479.622 409.551 480.039 409.332C480.039 406.491 480.039 403.65 480.039 400.81C469.534 407.111 456.934 410.199 447.436 418.049C435.139 428.214 458.709 430.421 464.32 432.99C464.557 433.098 464.715 433.229 464.817 433.371C464.861 433.383 464.894 433.389 464.941 433.401C468.956 434.505 472.63 432.262 475.924 430.491C480.287 428.143 484.612 425.727 488.91 423.264C497.059 418.592 505.306 414.086 513.419 409.354C517.727 406.841 522.179 404.392 526.237 401.485C527.876 400.31 532.906 397.192 531.902 394.373C531.703 393.815 531.083 393.22 530.742 392.632C530.569 392.648 530.417 392.642 530.313 392.603C518.885 388.323 503.464 383.001 493.459 392.885C493.359 392.983 493.176 393.074 492.952 393.152ZM534.185 344.602C534.094 344.487 534.039 344.342 534.039 344.162C534.039 313.207 534.039 282.252 534.039 251.296C531.008 251.473 526.514 254.067 524.212 254.978C518.682 257.167 513.194 259.46 507.68 261.691C498.025 265.596 488.215 268.899 478.33 272.167C466.131 276.2 453.924 280.212 441.753 284.328C436.157 286.221 430.562 288.121 424.997 290.102C424.112 290.417 423.203 290.79 422.28 291.112C422.671 291.203 422.955 291.437 422.955 291.858C422.955 307.414 422.953 322.969 422.953 338.526C422.953 360.374 422.953 382.223 422.953 404.072C425.584 402.673 428.216 401.276 430.82 399.829C436.279 396.795 441.697 393.686 447.096 390.546C458.06 384.168 468.971 377.698 480.039 371.502C480.039 363.5 480.039 355.499 480.039 347.497C480.039 347.246 480.197 347.026 480.435 346.848C480.049 343.316 481.468 340.146 485.182 338.868C487.193 338.176 492.138 337.712 492.278 340.957C492.28 341.01 492.27 341.061 492.257 341.112C492.658 341.199 492.953 341.433 492.953 341.861C492.953 349.366 492.953 356.871 492.953 364.376C506.893 358.131 519.632 349.491 534.185 344.602ZM457.716 162.313C457.702 194.66 457.044 227.001 457.004 259.349C404.906 259.349 352.809 259.349 300.712 259.349C300.119 259.349 297.415 260.511 298.827 260.511C351.552 260.511 404.276 260.511 457.001 260.511C457.001 260.806 456.999 261.102 456.999 261.397C456.999 262.214 459.896 261.69 459.896 260.62C459.91 227.591 460.6 194.566 460.614 161.536C460.614 160.719 457.716 161.243 457.716 162.313ZM299.782 258.466C299.796 226.119 300.454 193.778 300.494 161.43C352.831 161.43 405.167 161.43 457.504 161.43C458.097 161.43 460.801 160.268 459.389 160.268C406.496 160.268 353.604 160.268 300.711 160.268C300.657 160.268 300.582 160.281 300.498 160.298C300.498 159.992 300.5 159.687 300.5 159.382C300.5 158.565 297.603 159.089 297.603 160.159C297.589 193.188 296.899 226.213 296.885 259.243C296.884 260.061 299.781 259.536 299.782 258.466ZM428.349 213.71C427.293 214.801 426.2 215.857 425.114 216.918C422.351 219.617 419.565 222.292 416.804 224.993C414.28 227.464 411.763 229.948 409.374 232.551C408.706 233.279 406.476 235.229 406.92 236.454C407.376 237.712 410.259 236.893 409.817 235.677C409.637 235.181 413.111 231.899 413.695 231.29C416.358 228.516 419.126 225.841 421.883 223.161C424.439 220.678 427.011 218.212 429.543 215.704C430.372 214.884 431.763 213.849 432.316 212.689C432.39 212.574 432.437 212.448 432.462 212.318C432.467 212.301 432.477 212.285 432.482 212.268C432.486 212.252 432.482 212.237 432.484 212.221C432.489 212.153 432.484 212.084 432.471 212.016C432.467 211.996 432.472 211.977 432.467 211.957C432.132 210.75 430.498 209.605 429.664 208.773C427.29 206.406 424.865 204.088 422.458 201.754C419.546 198.931 416.641 196.1 413.815 193.189C412.896 192.241 411.996 191.274 411.125 190.281C410.687 189.781 409.948 188.342 409.759 188.864C410.342 187.257 407.436 187.218 406.976 188.487C405.934 191.36 414.564 197.929 416.233 199.568C419.022 202.305 421.836 205.017 424.638 207.74C425.845 208.913 427.047 210.091 428.227 211.291C428.526 211.596 428.818 211.906 429.108 212.22C429.265 212.39 429.35 212.492 429.411 212.569C429.365 212.624 429.309 212.69 429.228 212.781C428.947 213.1 428.646 213.403 428.349 213.71ZM343.788 193.382C344.393 192.751 347.807 189.402 347.685 189.066C347.2 187.728 350.087 186.922 350.582 188.289C351.047 189.573 348.853 191.494 348.147 192.263C345.758 194.866 343.241 197.35 340.717 199.821C337.775 202.699 334.801 205.546 331.862 208.426C330.845 209.423 329.819 210.414 328.838 211.447C328.34 211.971 328.188 212.197 328.133 212.244C328.194 212.318 328.274 212.413 328.399 212.548C328.689 212.861 328.982 213.172 329.28 213.477C330.344 214.56 331.427 215.625 332.515 216.685C335.282 219.38 338.069 222.055 340.825 224.76C343.484 227.37 346.2 229.962 348.659 232.767C349.389 233.599 350.966 234.949 350.51 236.205C350.097 237.346 347.198 237.464 347.754 235.93C347.774 235.875 344.383 232.255 343.677 231.527C340.999 228.767 338.248 226.078 335.489 223.399C332.932 220.918 330.352 218.459 327.829 215.942C327.009 215.124 325.364 213.973 325.033 212.785C325.002 212.674 325.009 212.565 325.033 212.46C325.042 212.363 325.062 212.264 325.091 212.161C325.463 210.824 327.48 209.418 328.405 208.507C330.788 206.16 333.2 203.843 335.599 201.512C338.356 198.829 341.125 196.155 343.788 193.382ZM328.095 212.192C328.082 212.106 328.049 211.928 327.853 211.713C327.963 211.842 328.019 211.976 328.03 212.109C328.043 212.127 328.073 212.165 328.095 212.192ZM387.069 187.123C386.752 187.896 386.388 188.651 386.031 189.406C384.991 191.607 383.891 193.781 382.798 195.956C379.615 202.284 376.375 208.583 373.198 214.913C372.092 217.118 360.743 236.809 364.139 238.327C365.283 238.839 367.5 237.197 365.832 236.452C366.605 236.798 366.93 234.405 367.333 233.395C368.36 230.818 369.558 228.305 370.745 225.799C373.816 219.318 377.08 212.927 380.327 206.533C383.093 201.088 385.906 195.663 388.557 190.161C389.025 189.188 391.976 184.104 388.483 185.125C386.722 185.639 387.212 187.519 388.986 187C386.693 187.672 387.729 185.512 387.069 187.123ZM278.218 129.079C278.204 161.832 277.537 194.582 277.496 227.336C224.739 227.336 171.983 227.336 119.226 227.336C118.633 227.336 115.929 228.498 117.341 228.498C170.725 228.498 224.108 228.498 277.492 228.498C277.492 228.798 277.49 229.098 277.49 229.397C277.49 230.214 280.387 229.69 280.387 228.62C280.401 195.18 281.1 161.743 281.115 128.302C281.116 127.484 278.219 128.009 278.218 129.079ZM118.28 226.438C118.294 193.684 118.961 160.934 119.002 128.179C172.001 128.179 224.999 128.179 277.998 128.179C278.591 128.179 281.295 127.017 279.883 127.017C226.331 127.017 172.78 127.017 119.228 127.017C119.172 127.017 119.094 127.03 119.006 127.048C119.006 126.738 119.008 126.429 119.008 126.119C119.008 125.302 116.111 125.826 116.111 126.896C116.097 160.336 115.398 193.773 115.383 227.214C115.382 228.033 118.279 227.509 118.28 226.438ZM262.564 142.807C219.311 142.807 176.058 142.807 132.804 142.807C131.522 142.807 129.799 144.754 131.758 144.754C175.011 144.754 218.264 144.754 261.518 144.754C262.8 144.754 264.523 142.807 262.564 142.807ZM131.758 165.701C149.205 165.701 166.651 165.701 184.098 165.701C185.38 165.701 187.103 163.754 185.144 163.754C167.697 163.754 150.251 163.754 132.804 163.754C131.522 163.754 129.799 165.701 131.758 165.701ZM199.319 163.754C198.037 163.754 196.314 165.701 198.273 165.701C218.991 165.701 239.709 165.701 260.427 165.701C261.709 165.701 263.432 163.754 261.473 163.754C240.755 163.754 220.038 163.754 199.319 163.754ZM131.758 188.145C175.011 188.145 218.264 188.145 261.518 188.145C262.8 188.145 264.523 186.198 262.564 186.198C219.311 186.198 176.058 186.198 132.804 186.198C131.522 186.197 129.799 188.145 131.758 188.145ZM131.758 209.09C149.205 209.09 166.651 209.09 184.098 209.09C185.38 209.09 187.103 207.143 185.144 207.143C167.697 207.143 150.251 207.143 132.804 207.143C131.522 207.143 129.799 209.09 131.758 209.09ZM199.319 207.143C198.037 207.143 196.314 209.09 198.273 209.09C218.991 209.09 239.709 209.09 260.427 209.09C261.709 209.09 263.432 207.143 261.473 207.143C240.755 207.143 220.038 207.143 199.319 207.143Z" fill="black"/>
</svg>
