<svg width="35" height="35" viewBox="0 0 48 48" fill="none" xmlns="http://www.w3.org/2000/svg">
<path d="M7.25435 40.7065C6.17078 40.7065 5.23975 40.3173 4.46125 39.5387C3.68272 38.7602 3.29345 37.8292 3.29345 36.7456V11.2543C3.29345 10.163 3.68272 9.22532 4.46125 8.44125C5.23975 7.65721 6.17078 7.2652 7.25435 7.2652H40.7457C41.837 7.2652 42.7747 7.65721 43.5587 8.44125C44.3428 9.22532 44.7348 10.163 44.7348 11.2543V36.7456C44.7348 37.8292 44.3428 38.7602 43.5587 39.5387C42.7747 40.3173 41.837 40.7065 40.7457 40.7065H7.25435ZM7.25435 36.7456H22.3304V11.2543H7.25435V36.7456ZM25.6695 36.7456H40.7457V11.2543H25.6695V36.7456ZM27.8695 30.5804H38.5957V27.7695H27.8695V30.5804ZM27.8695 24.8195H38.5957V21.9804H27.8695V24.8195ZM27.8695 19.0304H38.5957V16.2195H27.8695V19.0304Z" fill="#0000CD"/>
</svg>
